# Blender v2.70 (sub 0) OBJ File: ''
# www.blender.org
mtllib untitled.mtl
v 11.003126 -1.126765 11.718620
v 7.606250 -3.203947 9.245738
v 9.829225 -0.422438 9.147323
v 7.227269 -4.882770 10.945363
v 7.151920 -3.979542 20.162460
v 5.047951 -4.000047 20.115623
v 7.186686 -4.636733 22.575735
v 4.425540 -4.629024 22.247078
v 6.673768 -5.743346 29.029083
v 2.283119 -5.714726 28.439100
v 3.225289 -5.606845 36.457886
v 0.217259 -4.531597 34.334427
v -2.779795 -5.596062 36.462734
v -2.085465 -5.754385 28.118307
v -6.423240 -5.728697 28.868471
v -4.210952 -4.610837 22.261848
v -6.972324 -4.608696 22.588842
v -4.826216 -3.985242 20.109482
v -6.937808 -4.002478 20.174156
v -7.217447 -4.883213 11.012366
v -11.314630 -0.797887 11.724832
v -7.471915 -3.216749 9.192984
v -9.657948 -0.423769 9.070019
v 3.443880 7.288174 33.387959
v 2.204012 6.242879 40.547256
v 5.890347 5.082943 39.995811
v -2.040775 6.096917 40.831875
v -3.098734 7.288226 33.397713
v -5.646962 4.959505 40.184872
v -5.960969 5.548274 33.018410
v -7.767401 2.537066 36.563316
v -8.777259 -0.017974 32.486874
v -8.105989 -2.186742 36.410988
v -6.554688 -5.124915 32.453159
v -5.592757 -4.446508 40.619007
v -1.222737 -6.223496 39.823845
v -1.232758 -6.267912 41.907028
v 1.607242 -6.288003 41.987003
v 0.157245 -7.049683 46.464573
v 6.567248 -5.468876 45.736336
v 0.217250 -7.088330 50.961487
v 8.737255 -4.509063 51.584469
v 0.217257 -5.524292 56.103306
v 6.339582 -4.114511 57.386070
v 2.867262 -3.463421 58.111835
v 3.867269 -0.024978 59.455822
v 20.469036 2.819260 54.774220
v 29.373810 -0.542589 53.313194
v 22.432789 -0.787401 52.654839
v 29.545227 1.512680 55.419704
v 23.530903 2.534277 56.779903
v 29.382580 -0.625510 57.168015
v 22.135399 -0.292427 58.387794
v 23.816269 -3.790925 57.228100
v 20.001045 -3.378498 57.413780
v 20.084564 -3.466464 53.107079
v 16.467985 -4.102645 53.711121
v 17.706478 -0.823422 52.428768
v 12.017192 -4.548660 53.191391
v 12.435803 -0.643423 51.587746
v 8.737255 -4.509063 51.584469
v 8.627260 -0.337408 50.159306
v -29.144165 1.523089 55.391266
v -20.043863 2.839986 54.745018
v -28.960672 -0.533036 53.324173
v -23.106649 2.594238 56.781738
v -29.016768 -0.637051 57.231094
v -21.721397 -0.273010 58.408352
v -23.401546 -3.830968 57.227108
v -19.586590 -3.408796 57.423038
v -19.668831 -3.485200 53.056633
v -16.052856 -4.121895 53.680649
v -17.261074 -0.822545 52.389488
v -11.602281 -4.544836 53.175030
v -12.011011 -0.626840 51.578644
v -8.022745 -4.559155 51.684429
v -8.262742 -0.387382 50.159264
v 0.227279 6.631911 59.387402
v -5.352725 4.241735 59.544636
v 0.217271 1.805721 58.857948
v -4.802718 7.779947 61.088737
v -1.982715 9.169093 61.820343
v 0.227287 10.700180 60.882118
v 2.467286 9.169099 61.810341
v 5.357283 7.759965 61.058704
v 0.227279 6.631911 59.387402
v 5.947276 4.221764 59.504601
v 0.217271 1.805721 58.857948
v 0.227274 4.594718 56.965038
v -5.352725 4.241735 59.544636
v -3.622724 6.976020 55.847801
v 29.814379 -2.108840 54.063698
v 31.784960 -2.321928 53.479485
v 31.768108 -3.075530 53.514130
v 31.784428 0.437276 55.125271
v 29.808092 0.774463 54.405930
v 33.296463 1.041725 55.815918
v 29.926661 0.754426 56.735401
v 33.346081 1.004429 57.460926
v 29.913050 -2.027076 56.774929
v 33.365883 -2.357079 57.526245
v 33.293037 -2.318824 55.818314
v 35.082794 -2.346087 56.598045
v 34.484680 -2.335335 55.779118
v 36.213390 -1.884731 54.902531
v -32.860817 -2.318607 55.796310
v -34.656200 -2.335783 56.570797
v -34.056973 -2.335387 55.774040
v -32.953499 -2.346821 57.506607
v -29.502001 -2.036654 56.745544
v -32.944702 1.024877 57.432610
v -29.515612 0.754845 56.706230
v -32.865269 1.062109 55.784306
v -29.405464 0.784226 54.407448
v -31.370996 0.437367 55.115395
v -29.402285 -2.108854 54.054497
v -31.344688 -2.301372 53.482964
v -31.336287 -3.058276 53.513405
v -4.292741 4.981653 42.319229
v 2.204012 6.242879 40.547256
v -2.040775 6.096917 40.831875
v 4.887261 4.991628 42.329231
v -4.282738 5.209408 44.389477
v 4.887263 5.219384 44.399479
v -5.342735 5.549769 46.968681
v 6.177266 5.559561 47.138680
v 0.227272 6.329621 52.737045
v 7.767271 5.390793 51.715950
v 6.640380 3.315276 57.969391
v 8.710136 4.368998 53.349316
v 9.812081 2.312906 58.503834
v 0.217257 -5.524292 56.103306
v 1.237262 -3.513650 58.311779
v -0.832738 -3.463647 58.311840
v 2.117262 -4.243964 58.580933
v 2.867262 -3.463421 58.111835
v 3.837267 -2.185812 60.173317
v 3.867269 -0.024978 59.455822
v 3.127275 2.682946 61.248962
v 3.427274 3.175298 59.219532
v 0.227278 4.753668 60.631367
v 0.227275 4.536392 58.281113
v -2.952727 3.195331 59.199562
v 3.443880 7.288174 33.387959
v 6.581495 5.629884 33.060616
v 0.217248 0.056424 40.066013
v -3.098734 7.288226 33.397713
v -5.960969 5.548274 33.018410
v -8.777259 -0.017974 32.486874
v -6.554688 -5.124915 32.453159
v -1.647982 -7.251724 32.888958
v 2.113386 -7.252529 32.886051
v 6.970307 -5.276054 32.446087
v 8.900698 0.032187 32.330070
v 6.581495 5.629884 33.060616
v -0.332641 2.203772 33.417393
v 0.217259 -4.531597 34.334427
v 0.477241 2.797637 36.556957
v 0.719035 -0.761659 27.466696
v 4.636341 4.264194 28.303373
v 2.356727 -0.986640 22.071173
v 5.786589 2.363482 23.440130
v 6.680220 3.371601 18.085825
v 9.374834 -0.978807 23.078459
v 9.207779 -0.982817 19.671350
v 7.151920 -3.979542 20.162460
v 11.003126 -1.126765 11.718620
v 7.127614 -9.263815 2.955425
v 6.997612 -9.433013 0.635366
v 10.257611 -8.833001 0.615571
v 6.247607 -5.198286 0.645499
v 6.667608 -4.759355 3.735650
v 6.335974 -0.743732 5.659906
v 8.277607 -2.550048 5.746414
v 7.606250 -3.203947 9.245738
v 10.031622 -0.556715 5.354439
v 9.829225 -0.422438 9.147323
v 8.117601 1.430156 5.157792
v 7.452545 2.104009 9.587618
v -20.043863 2.839986 54.745018
v -22.017826 -0.776939 52.635159
v -28.960672 -0.533036 53.324173
v -18.806633 2.440446 53.981586
v -18.697132 2.452725 55.805416
v -15.414350 2.912077 55.059937
v -17.226452 -0.353808 58.145935
v -12.423493 -0.607238 58.472408
v -16.044243 -3.907741 56.948380
v -9.276099 -3.577889 57.108665
v -11.602281 -4.544836 53.175030
v -8.022745 -4.559155 51.684429
v -7.033189 -9.263796 2.815446
v -6.903194 -9.432993 0.495388
v -6.153199 -5.198267 0.515517
v -10.163194 -8.832994 0.485602
v -9.623191 -8.653637 2.345663
v -11.033199 -5.198277 0.525527
v -10.443194 -4.779138 3.015671
v -10.553205 -0.318273 0.517213
v -9.921395 -0.560486 5.222095
v -9.903210 2.331717 0.548129
v -7.993200 1.420172 5.027810
v -6.803210 2.471725 0.538171
v -0.540176 -0.873030 27.012840
v 0.796852 2.183805 33.412117
v 0.217259 -4.531597 34.334427
v -5.006424 4.425438 27.822144
v -2.148763 -0.981626 22.038992
v -5.537411 2.349376 23.413944
v -6.460876 3.375595 18.062941
v -9.175270 -0.982916 23.058403
v -9.009726 -0.988013 19.640625
v -6.937808 -4.002478 20.174156
v -11.314630 -0.797887 11.724832
v 0.796852 2.183805 33.412117
v -0.352759 2.847632 36.566975
v 0.217259 -4.531597 34.334427
v -3.701825 6.264977 36.439331
v -4.183395 5.461264 34.600136
v -6.925872 -0.332031 37.179276
v -9.113031 -0.447983 28.881981
v -6.423240 -5.728697 28.868471
v -9.175270 -0.982916 23.058403
v -6.972324 -4.608696 22.588842
v -6.937808 -4.002478 20.174156
v 19.232027 2.419456 54.020782
v 20.469036 2.819260 54.774220
v 22.432789 -0.787401 52.654839
v 19.102318 2.441990 55.835323
v 15.839707 2.861390 55.088360
v 17.650572 -0.363199 58.125431
v 12.837586 -0.611270 58.451698
v 16.448679 -3.877754 56.949352
v 9.389010 -3.518780 57.081646
v 12.017192 -4.548660 53.191391
v 8.737255 -4.509063 51.584469
v 0.227272 6.329621 52.737045
v -6.166693 3.325258 57.983517
v 0.227275 4.536392 58.281113
v -7.292731 5.400874 51.665974
v -5.342735 5.549769 46.968681
v -7.692746 -0.339094 45.952091
v -6.922748 -0.159836 43.693657
v -6.302754 -5.469126 45.976349
v -5.772754 -4.198784 42.719276
v -1.232758 -6.267912 41.907028
v -5.592757 -4.446508 40.619007
v 8.650825 -2.283960 36.346489
v 6.970307 -5.276054 32.446087
v 8.900698 0.032187 32.330070
v 6.027244 -4.456633 40.718983
v 7.057252 -0.167646 41.653633
v 6.187247 -4.228922 42.829231
v 7.227255 -0.189966 43.793610
v 6.567248 -5.468876 45.736336
v 7.897256 -0.349195 46.022064
v 8.737255 -4.509063 51.584469
v 8.627260 -0.337408 50.159306
v 3.997102 6.221040 36.497295
v -0.332641 2.203772 33.417393
v 0.477241 2.797637 36.556957
v 4.485685 5.409079 34.680069
v 7.226868 -0.387344 37.340370
v 8.936219 -0.821390 28.780331
v 6.673768 -5.743346 29.029083
v 9.374834 -0.978807 23.078459
v 7.186686 -4.636733 22.575735
v 7.151920 -3.979542 20.162460
v 36.213390 -1.884731 54.902531
v 36.195236 0.408962 55.313801
v 36.549221 -1.889994 55.313614
v 35.901173 0.414129 54.918709
v 34.484680 -2.335335 55.779118
v 34.551243 0.785267 55.783573
v 33.293037 -2.318824 55.818314
v 33.296463 1.041725 55.815918
v 32.820717 -3.278335 54.885365
v 32.787594 -2.376391 54.895416
v 29.814379 -2.108840 54.063698
v 29.373810 -0.542589 53.313194
v 29.808092 0.774463 54.405930
v 29.431992 -2.946315 54.856991
v 29.913050 -2.027076 56.774929
v 29.382580 -0.625510 57.168015
v 29.926661 0.754426 56.735401
v 29.545227 1.512680 55.419704
v 29.808092 0.774463 54.405930
v 29.373810 -0.542589 53.313194
v -34.656200 -2.335783 56.570797
v -35.792065 -1.874732 54.895390
v -34.056973 -2.335387 55.774040
v -36.142605 -1.869725 55.293129
v -34.664940 0.784716 56.567783
v -35.774498 0.429187 55.292694
v -34.128700 0.785443 55.765320
v -35.465721 0.424085 54.910946
v -34.056973 -2.335387 55.774040
v -35.792065 -1.874732 54.895390
v -6.573194 -4.769329 3.585666
v -6.153199 -5.198267 0.515517
v -6.237838 -0.747095 5.547650
v -8.173193 -2.560029 5.606433
v -7.471915 -3.216749 9.192984
v -5.162561 -0.645574 8.795440
v -7.993200 1.420172 5.027810
v -6.803210 2.471725 0.538171
v -5.913206 0.041734 0.517328
v -6.153199 -5.198267 0.515517
v -8.022745 -4.559155 51.684429
v -6.302754 -5.469126 45.976349
v 0.217250 -7.088330 50.961487
v -7.692746 -0.339094 45.952091
v -8.262742 -0.387382 50.159264
v -7.292731 5.400874 51.665974
v -8.299776 4.290604 53.198193
v -6.166693 3.325258 57.983517
v -9.396852 2.268218 58.486546
v -5.592757 -4.446508 40.619007
v -5.772754 -4.198784 42.719276
v -6.672750 -0.147592 41.623669
v -8.105989 -2.186742 36.410988
v -7.767401 2.537066 36.563316
v -5.646962 4.959505 40.184872
v -4.292741 4.981653 42.319229
v -6.922748 -0.159836 43.693657
v -5.772754 -4.198784 42.719276
v -0.832738 -3.463647 58.311840
v -2.202732 -0.144436 58.995689
v -3.372734 -2.175801 60.173336
v -1.612739 -4.223994 58.610958
v -2.402738 -3.453425 58.121853
v -3.442732 -0.154956 59.445679
v -2.642725 2.692943 61.258980
v -1.282728 2.545456 59.088806
v -2.202732 -0.144436 58.995689
v 19.102318 2.441990 55.835323
v 23.530903 2.534277 56.779903
v 20.469036 2.819260 54.774220
v 22.135399 -0.292427 58.387794
v 17.650572 -0.363199 58.125431
v 20.001045 -3.378498 57.413780
v 16.448679 -3.877754 56.949352
v 16.467985 -4.102645 53.711121
v 12.017192 -4.548660 53.191391
v 17.706478 -0.823422 52.428768
v 19.232027 2.419456 54.020782
v 22.432789 -0.787401 52.654839
v 15.839707 2.861390 55.088360
v 12.435803 -0.643423 51.587746
v 12.455651 3.253995 54.564430
v 10.252927 3.215617 54.234531
v 9.812081 2.312906 58.503834
v 8.710136 4.368998 53.349316
v 34.479210 -2.500358 53.794792
v 31.784960 -2.321928 53.479485
v 32.787594 -2.376391 54.895416
v 34.299664 -2.461987 53.239914
v 34.477810 -3.160907 53.825981
v 34.255650 -3.097284 53.172379
v 32.820717 -3.278335 54.885365
v 31.768108 -3.075530 53.514130
v 29.814379 -2.108840 54.063698
v 10.031622 -0.556715 5.354439
v 10.017597 2.331712 0.668102
v 8.117601 1.430156 5.157792
v 10.647601 -0.318280 0.647184
v 10.547608 -4.779149 3.155641
v 11.127607 -5.198279 0.645495
v 9.727612 -8.653649 2.485634
v 10.257611 -8.833001 0.615571
v 7.127614 -9.263815 2.955425
v -29.515612 0.754845 56.706230
v -29.144165 1.523089 55.391266
v -29.405464 0.784226 54.407448
v -29.016768 -0.637051 57.231094
v -29.502001 -2.036654 56.745544
v -29.018847 -2.936759 54.867977
v -29.402285 -2.108854 54.054497
v -28.960672 -0.533036 53.324173
v -29.405464 0.784226 54.407448
v -32.384792 -3.269909 54.907120
v -31.336287 -3.058276 53.513405
v -29.402285 -2.108854 54.054497
v -33.842144 -3.087484 53.173523
v -34.060333 -3.149710 53.818054
v -33.854832 -2.449248 53.244186
v -34.060555 -2.491440 53.809074
v -31.344688 -2.301372 53.482964
v -32.352188 -2.368474 54.894825
v -12.011011 -0.626840 51.578644
v -9.837143 3.225903 54.204681
v -8.299776 4.290604 53.198193
v -12.020816 3.265447 54.552414
v -15.414350 2.912077 55.059937
v -9.396852 2.268218 58.486546
v -12.423493 -0.607238 58.472408
v -9.567195 -0.316156 58.942722
v -9.276099 -3.577889 57.108665
v -16.044243 -3.907741 56.948380
v -16.052856 -4.121895 53.680649
v -11.602281 -4.544836 53.175030
v -19.586590 -3.408796 57.423038
v -17.226452 -0.353808 58.145935
v -21.721397 -0.273010 58.408352
v -18.697132 2.452725 55.805416
v -23.106649 2.594238 56.781738
v -20.043863 2.839986 54.745018
v 7.897256 -0.349195 46.022064
v 7.767271 5.390793 51.715950
v 8.627260 -0.337408 50.159306
v 6.177266 5.559561 47.138680
v 7.227255 -0.189966 43.793610
v 4.887263 5.219384 44.399479
v 7.057252 -0.167646 41.653633
v 4.887261 4.991628 42.329231
v 5.890347 5.082943 39.995811
v -2.342756 -6.026793 43.885719
v -2.512758 -7.156656 43.764454
v -4.612758 -7.016709 43.814613
v -1.402755 -7.960945 47.593555
v -1.132753 -6.581059 47.695099
v -1.712754 -8.032746 49.203476
v -1.422751 -6.662849 49.295010
v 1.207247 -8.834856 51.082577
v 1.487249 -7.454957 51.174118
v 9.890748 -0.267333 58.999897
v 9.812081 2.312906 58.503834
v 8.235089 -0.075042 58.850151
v 9.389010 -3.518780 57.081646
v 6.339582 -4.114511 57.386070
v 3.867269 -0.024978 59.455822
v 6.640380 3.315276 57.969391
v 9.812081 2.312906 58.503834
v 6.187247 -4.228922 42.829231
v 1.607242 -6.288003 41.987003
v 1.617263 -6.243520 39.913837
v 6.027244 -4.456633 40.718983
v 6.970307 -5.276054 32.446087
v 2.113386 -7.252529 32.886051
v -1.222737 -6.223496 39.823845
v 1.607242 -6.288003 41.987003
v 0.227282 10.576522 55.411972
v 4.427280 8.614556 57.099693
v 0.227276 8.549293 53.019619
v 0.227287 10.700180 60.882118
v -3.902721 8.614731 56.959702
v -4.802718 7.779947 61.088737
v -3.622724 6.976020 55.847801
v -5.352725 4.241735 59.544636
v -8.022745 -4.559155 51.684429
v 0.217257 -5.524292 56.103306
v -6.034781 -4.114522 57.378487
v -9.276099 -3.577889 57.108665
v -7.849105 -0.185050 58.828102
v -3.442732 -0.154956 59.445679
v -2.402738 -3.453425 58.121853
v 0.217257 -5.524292 56.103306
v -11.314630 -0.797887 11.724832
v -6.460876 3.375595 18.062941
v -7.046063 3.794692 11.746351
v -9.657948 -0.423769 9.070019
v -7.282778 2.093484 9.499672
v -5.162561 -0.645574 8.795440
v -3.119311 -0.831194 11.046057
v -6.460876 3.375595 18.062941
v 6.680220 3.371601 18.085825
v 11.003126 -1.126765 11.718620
v 6.446514 3.670313 11.776384
v 3.012048 -0.600037 11.092022
v 5.322430 -0.635064 8.881999
v 7.452545 2.104009 9.587618
v 9.829225 -0.422438 9.147323
v 11.003126 -1.126765 11.718620
v -8.133193 -5.069422 3.845566
v -9.623191 -8.653637 2.345663
v -7.033189 -9.263796 2.815446
v -10.443194 -4.779138 3.015671
v -8.173193 -2.560029 5.606433
v -9.921395 -0.560486 5.222095
v -7.471915 -3.216749 9.192984
v -9.657948 -0.423769 9.070019
v 7.057252 -0.167646 41.653633
v 8.650825 -2.283960 36.346489
v 8.242034 2.508395 36.351257
v 5.890347 5.082943 39.995811
v 6.581495 5.629884 33.060616
v 8.900698 0.032187 32.330070
v 8.650825 -2.283960 36.346489
v -6.092751 -7.425674 51.824162
v -4.612758 -7.016709 43.814613
v -2.512758 -7.156656 43.764454
v -3.862751 -7.896113 52.213631
v -2.862752 -8.005140 51.343510
v -1.712754 -8.032746 49.203476
v -1.402755 -7.960945 47.593555
v -1.422751 -6.662849 49.295010
v -1.132753 -6.581059 47.695099
v -2.342756 -6.026793 43.885719
v -2.582750 -6.645277 51.465031
v -3.592749 -6.526227 52.315163
v -5.822749 -6.055776 51.915695
v -4.332755 -5.646844 43.936146
v -2.582750 -6.645277 51.465031
v -2.862752 -8.005140 51.343510
v 0.177249 -8.817194 53.172596
v -3.862751 -7.896113 52.213631
v -3.592749 -6.526227 52.315163
v -6.092751 -7.425674 51.824162
v -5.822749 -6.055776 51.915695
v 34.551243 0.785267 55.783573
v 33.346081 1.004429 57.460926
v 35.095535 0.774280 56.604198
v 36.195236 0.408962 55.313801
v 36.549221 -1.889994 55.313614
v 35.082794 -2.346087 56.598045
v 33.346081 1.004429 57.460926
v 29.431992 -2.946315 54.856991
v 23.816269 -3.790925 57.228100
v 23.718674 -4.061112 53.801167
v 29.373810 -0.542589 53.313194
v 22.432789 -0.787401 52.654839
v 20.084564 -3.466464 53.107079
v 23.816269 -3.790925 57.228100
v 10.547608 -4.779149 3.155641
v 8.277607 -2.550048 5.746414
v 8.237609 -5.069443 3.995542
v 9.727612 -8.653649 2.485634
v 7.127614 -9.263815 2.955425
v 6.667608 -4.759355 3.735650
v 8.277607 -2.550048 5.746414
v 6.017599 0.041710 0.657312
v 6.247607 -5.198286 0.645499
v 6.335974 -0.743732 5.659906
v 6.907596 2.461704 0.678149
v 8.117601 1.430156 5.157792
v 5.322430 -0.635064 8.881999
v 7.606250 -3.203947 9.245738
v -19.668831 -3.485200 53.056633
v -22.017826 -0.776939 52.635159
v -17.261074 -0.822545 52.389488
v -23.292892 -4.089812 53.750690
v -23.401546 -3.830968 57.227108
v -29.018847 -2.936759 54.867977
v -29.016768 -0.637051 57.231094
v -34.128700 0.785443 55.765320
v -32.944702 1.024877 57.432610
v -32.865269 1.062109 55.784306
v -32.860817 -2.318607 55.796310
v -32.384792 -3.269909 54.907120
v -32.352188 -2.368474 54.894825
v -31.370996 0.437367 55.115395
v 3.837267 -2.185812 60.173317
v 2.687269 0.045649 58.915905
v 1.237262 -3.513650 58.311779
v 1.707273 2.535440 59.098793
v 3.127275 2.682946 61.248962
v 0.227278 4.753668 60.631367
v 0.227278 4.753668 60.631367
v -1.282728 2.545456 59.088806
v 1.707273 2.535440 59.098793
v -2.642725 2.692943 61.258980
v -2.952727 3.195331 59.199562
v -3.442732 -0.154956 59.445679
v 5.357283 7.759965 61.058704
v 5.947276 4.221764 59.504601
v 4.147277 6.965846 55.987782
v 4.427280 8.614556 57.099693
v 0.227276 8.549293 53.019619
v 0.227272 5.658740 53.496269
v -2.085465 -5.754385 28.118307
v -0.540176 -0.873030 27.012840
v 0.217259 -4.531597 34.334427
v -2.148763 -0.981626 22.038992
v -4.210952 -4.610837 22.261848
v -4.826216 -3.985242 20.109482
v -4.183395 5.461264 34.600136
v 0.796852 2.183805 33.412117
v -5.006424 4.425438 27.822144
v -9.113031 -0.447983 28.881981
v -9.175270 -0.982916 23.058403
v -5.537411 2.349376 23.413944
v -6.166693 3.325258 57.983517
v -3.442732 -0.154956 59.445679
v -2.952727 3.195331 59.199562
v -7.849105 -0.185050 58.828102
v -9.396852 2.268218 58.486546
v -9.567195 -0.316156 58.942722
v 9.812081 2.312906 58.503834
v 15.839707 2.861390 55.088360
v 12.455651 3.253995 54.564430
v 12.837586 -0.611270 58.451698
v 9.890748 -0.267333 58.999897
v 9.389010 -3.518780 57.081646
v -4.826216 -3.985242 20.109482
v -2.957788 -0.984076 18.800192
v -2.148763 -0.981626 22.038992
v -3.119311 -0.831194 11.046057
v -7.217447 -4.883213 11.012366
v -7.471915 -3.216749 9.192984
v 5.047951 -4.000047 20.115623
v 3.175643 -0.978880 18.833721
v 3.012048 -0.600037 11.092022
v 2.356727 -0.986640 22.071173
v 4.425540 -4.629024 22.247078
v 2.283119 -5.714726 28.439100
v 9.374834 -0.978807 23.078459
v 5.786589 2.363482 23.440130
v 4.636341 4.264194 28.303373
v 8.936219 -0.821390 28.780331
v 4.485685 5.409079 34.680069
v -0.332641 2.203772 33.417393
v 6.907596 2.461704 0.678149
v 10.017597 2.331712 0.668102
v 10.647601 -0.318280 0.647184
v 6.017599 0.041710 0.657312
v 6.247607 -5.198286 0.645499
v 11.127607 -5.198279 0.645495
v -10.553205 -0.318273 0.517213
v -5.913206 0.041734 0.517328
v -6.153199 -5.198267 0.515517
v -11.033199 -5.198277 0.525527
v -10.163194 -8.832994 0.485602
v -6.903194 -9.432993 0.495388
v -0.752736 -3.114807 59.312244
v 1.237262 -3.513650 58.311779
v 1.237264 -3.124752 59.262230
v -0.832738 -3.463647 58.311840
v -2.202732 -0.144436 58.995689
v 0.227274 4.594718 56.965038
v 4.147277 6.965846 55.987782
v 5.947276 4.221764 59.504601
v 0.227272 5.658740 53.496269
v -3.622724 6.976020 55.847801
v 3.012048 -0.600037 11.092022
v 7.227269 -4.882770 10.945363
v 5.047951 -4.000047 20.115623
v 7.606250 -3.203947 9.245738
v 5.322430 -0.635064 8.881999
v -32.944702 1.024877 57.432610
v -34.656200 -2.335783 56.570797
v -32.953499 -2.346821 57.506607
v -34.664940 0.784716 56.567783
v -34.128700 0.785443 55.765320
v -17.261074 -0.822545 52.389488
v -15.414350 2.912077 55.059937
v -12.011011 -0.626840 51.578644
v -18.806633 2.440446 53.981586
v -22.017826 -0.776939 52.635159
v -6.573194 -4.769329 3.585666
v -7.033189 -9.263796 2.815446
v -6.153199 -5.198267 0.515517
v -8.133193 -5.069422 3.845566
v -8.173193 -2.560029 5.606433
v 0.177249 -8.817194 53.172596
v 0.417251 -7.447329 53.294132
v -2.582750 -6.645277 51.465031
v 1.487249 -7.454957 51.174118
v 1.207247 -8.834856 51.082577
v -4.282738 5.209408 44.389477
v -6.922748 -0.159836 43.693657
v -5.342735 5.549769 46.968681
v -4.292741 4.981653 42.319229
v 0.227275 4.536392 58.281113
v 6.640380 3.315276 57.969391
v 0.227272 6.329621 52.737045
v 3.427274 3.175298 59.219532
v -6.302754 -5.469126 45.976349
v 0.157245 -7.049683 46.464573
v 0.217250 -7.088330 50.961487
v -1.232758 -6.267912 41.907028
v -1.222737 -6.223496 39.823845
v -1.647982 -7.251724 32.888958
v 2.113386 -7.252529 32.886051
v -6.554688 -5.124915 32.453159
v 0.719035 -0.761659 27.466696
v 2.283119 -5.714726 28.439100
v 0.217259 -4.531597 34.334427
v 2.356727 -0.986640 22.071173
v 0.217257 -5.524292 56.103306
v -1.612739 -4.223994 58.610958
v -2.402738 -3.453425 58.121853
v -0.832738 -3.463647 58.311840
v -1.712754 -8.032746 49.203476
v 0.177249 -8.817194 53.172596
v -2.862752 -8.005140 51.343510
v 1.207247 -8.834856 51.082577
v 0.417251 -7.447329 53.294132
v -1.422751 -6.662849 49.295010
v -2.582750 -6.645277 51.465031
v 1.487249 -7.454957 51.174118
v -6.092751 -7.425674 51.824162
v -4.332755 -5.646844 43.936146
v -4.612758 -7.016709 43.814613
v -5.822749 -6.055776 51.915695
v -3.622724 6.976020 55.847801
v 0.227276 8.549293 53.019619
v 0.227272 5.658740 53.496269
v -3.902721 8.614731 56.959702
v 29.814379 -2.108840 54.063698
v 33.293037 -2.318824 55.818314
v 29.913050 -2.027076 56.774929
v 32.820717 -3.278335 54.885365
v 31.768108 -3.075530 53.514130
v 34.299664 -2.461987 53.239914
v 34.255650 -3.097284 53.172379
v 31.784960 -2.321928 53.479485
v 32.787594 -2.376391 54.895416
v 34.477810 -3.160907 53.825981
v 34.479210 -2.500358 53.794792
v 32.820717 -3.278335 54.885365
v 31.784428 0.437276 55.125271
v 32.787594 -2.376391 54.895416
v 31.784960 -2.321928 53.479485
v 33.296463 1.041725 55.815918
v -2.957788 -0.984076 18.800192
v -6.460876 3.375595 18.062941
v -2.148763 -0.981626 22.038992
v -3.119311 -0.831194 11.046057
v 6.680220 3.371601 18.085825
v 3.175643 -0.978880 18.833721
v 2.356727 -0.986640 22.071173
v 3.012048 -0.600037 11.092022
v 6.247607 -5.198286 0.645499
v 10.257611 -8.833001 0.615571
v 6.997612 -9.433013 0.635366
v 11.127607 -5.198279 0.645495
v -32.860817 -2.318607 55.796310
v -29.402285 -2.108854 54.054497
v -29.502001 -2.036654 56.745544
v -32.384792 -3.269909 54.907120
v -35.792065 -1.874732 54.895390
v -35.774498 0.429187 55.292694
v -35.465721 0.424085 54.910946
v -36.142605 -1.869725 55.293129
v -33.854832 -2.449248 53.244186
v -31.336287 -3.058276 53.513405
v -33.842144 -3.087484 53.173523
v -31.344688 -2.301372 53.482964
v -34.060333 -3.149710 53.818054
v -32.352188 -2.368474 54.894825
v -34.060555 -2.491440 53.809074
v -32.384792 -3.269909 54.907120
v -28.960672 -0.533036 53.324173
v -23.292892 -4.089812 53.750690
v -29.018847 -2.936759 54.867977
v -22.017826 -0.776939 52.635159
v -9.396852 2.268218 58.486546
v -9.837143 3.225903 54.204681
v -12.020816 3.265447 54.552414
v -8.299776 4.290604 53.198193
v -6.803210 2.471725 0.538171
v -10.553205 -0.318273 0.517213
v -9.903210 2.331717 0.548129
v -5.913206 0.041734 0.517328
v -7.993200 1.420172 5.027810
v -9.657948 -0.423769 9.070019
v -7.282778 2.093484 9.499672
v -9.921395 -0.560486 5.222095
v 9.389010 -3.518780 57.081646
v 6.339582 -4.114511 57.386070
v 8.737255 -4.509063 51.584469
v 0.217257 -5.524292 56.103306
v -8.022745 -4.559155 51.684429
v 0.217250 -7.088330 50.961487
v -5.646962 4.959505 40.184872
v -4.292741 4.981653 42.319229
v -2.040775 6.096917 40.831875
v 1.607242 -6.288003 41.987003
v 6.187247 -4.228922 42.829231
v 6.567248 -5.468876 45.736336
v 5.890347 5.082943 39.995811
v 2.204012 6.242879 40.547256
v 4.887261 4.991628 42.329231
v 6.673768 -5.743346 29.029083
v 7.226868 -0.387344 37.340370
v 3.225289 -5.606845 36.457886
v 3.427274 3.175298 59.219532
v 3.867269 -0.024978 59.455822
v 6.640380 3.315276 57.969391
v 8.710136 4.368998 53.349316
v 8.627260 -0.337408 50.159306
v 7.767271 5.390793 51.715950
v 5.357283 7.759965 61.058704
v 4.427280 8.614556 57.099693
v 0.227287 10.700180 60.882118
v 3.443880 7.288174 33.387959
v 5.890347 5.082943 39.995811
v 6.581495 5.629884 33.060616
v -6.925872 -0.332031 37.179276
v -6.423240 -5.728697 28.868471
v -2.779795 -5.596062 36.462734
v 0.227275 4.536392 58.281113
v -6.166693 3.325258 57.983517
v -2.952727 3.195331 59.199562
v -4.332755 -5.646844 43.936146
v -2.342756 -6.026793 43.885719
v -4.612758 -7.016709 43.814613
v -3.902721 8.614731 56.959702
v 0.227282 10.576522 55.411972
v 0.227276 8.549293 53.019619
v 2.467286 9.169099 61.810341
v -1.982715 9.169093 61.820343
v 0.227279 6.631911 59.387402
v -7.849105 -0.185050 58.828102
v -9.567195 -0.316156 58.942722
v -9.276099 -3.577889 57.108665
v 20.084564 -3.466464 53.107079
v 17.706478 -0.823422 52.428768
v 22.432789 -0.787401 52.654839
v 33.296463 1.041725 55.815918
v 33.346081 1.004429 57.460926
v 34.551243 0.785267 55.783573
v 33.346081 1.004429 57.460926
v 33.365883 -2.357079 57.526245
v 35.082794 -2.346087 56.598045
v 23.816269 -3.790925 57.228100
v 29.431992 -2.946315 54.856991
v 29.382580 -0.625510 57.168015
v 35.082794 -2.346087 56.598045
v 36.213390 -1.884731 54.902531
v 36.549221 -1.889994 55.313614
v 34.551243 0.785267 55.783573
v 36.195236 0.408962 55.313801
v 35.901173 0.414129 54.918709
v 12.435803 -0.643423 51.587746
v 8.710136 4.368998 53.349316
v 10.252927 3.215617 54.234531
v 8.627260 -0.337408 50.159306
v 8.710136 4.368998 53.349316
v 12.435803 -0.643423 51.587746
v -11.314630 -0.797887 11.724832
v -9.009726 -0.988013 19.640625
v -6.460876 3.375595 18.062941
v -7.471915 -3.216749 9.192984
v -5.162561 -0.645574 8.795440
v -3.119311 -0.831194 11.046057
v 9.207779 -0.982817 19.671350
v 11.003126 -1.126765 11.718620
v 6.680220 3.371601 18.085825
v 10.017597 2.331712 0.668102
v 6.907596 2.461704 0.678149
v 8.117601 1.430156 5.157792
v 8.277607 -2.550048 5.746414
v 10.547608 -4.779149 3.155641
v 10.031622 -0.556715 5.354439
v 5.322430 -0.635064 8.881999
v 7.452545 2.104009 9.587618
v 8.117601 1.430156 5.157792
v 1.237264 -3.124752 59.262230
v 1.237262 -3.513650 58.311779
v 2.687269 0.045649 58.915905
v 2.117262 -4.243964 58.580933
v 3.837267 -2.185812 60.173317
v 1.237262 -3.513650 58.311779
v -34.128700 0.785443 55.765320
v -32.860817 -2.318607 55.796310
v -34.056973 -2.335387 55.774040
v -29.405464 0.784226 54.407448
v -29.144165 1.523089 55.391266
v -28.960672 -0.533036 53.324173
v -32.352188 -2.368474 54.894825
v -31.370996 0.437367 55.115395
v -31.344688 -2.301372 53.482964
v -8.299776 4.290604 53.198193
v -8.262742 -0.387382 50.159264
v -12.011011 -0.626840 51.578644
v -7.282778 2.093484 9.499672
v -5.162561 -0.645574 8.795440
v -7.993200 1.420172 5.027810
vt 0.822266 -0.960396
vt 0.757813 -0.990099
vt 0.822266 -0.998020
vt 0.753906 -0.964356
vt 0.769531 -0.819802
vt 0.734375 -0.815842
vt 0.773438 -0.780198
vt 0.728516 -0.780198
vt 0.785156 -0.675248
vt 0.712891 -0.677228
vt 0.728516 -0.540594
vt 0.681641 -0.580198
vt 0.632813 -0.540594
vt 0.654297 -0.677228
vt 0.583984 -0.673267
vt 0.630859 -0.776238
vt 0.585938 -0.774257
vt 0.625000 -0.811881
vt 0.591797 -0.813861
vt 0.603516 -0.962376
vt 0.533203 -0.958416
vt 0.603516 -0.990099
vt 0.533203 -0.994059
vt 0.476563 -0.514852
vt 0.492188 -0.415842
vt 0.433594 -0.423762
vt 0.546875 -0.415842
vt 0.562500 -0.514852
vt 0.609375 -0.423762
vt 0.607422 -0.518812
vt 0.656250 -0.473267
vt 0.687500 -0.528713
vt 0.718750 -0.475248
vt 0.767578 -0.526733
vt 0.767578 -0.415842
vt 0.845703 -0.423762
vt 0.845703 -0.396040
vt 0.884766 -0.398020
vt 0.865234 -0.336634
vt 0.949219 -0.346535
vt 0.865234 -0.277228
vt 0.968750 -0.271287
vt 0.865234 -0.207921
vt 0.947266 -0.192079
vt 0.900391 -0.182178
vt 0.914063 -0.134653
vt 0.097656 -0.776238
vt 0.066406 -0.617822
vt 0.054688 -0.738614
vt 0.109375 -0.609901
vt 0.132813 -0.720792
vt 0.173828 -0.617822
vt 0.175781 -0.748515
vt 0.208984 -0.716832
vt 0.208984 -0.788119
vt 0.291016 -0.782178
vt 0.283203 -0.849505
vt 0.306641 -0.825743
vt 0.296875 -0.932673
vt 0.326172 -0.922772
vt 0.306641 -0.978218
vt 0.357422 -0.990099
vt 0.091797 -0.776238
vt 0.664063 -0.077228
vt 0.605469 -0.104950
vt 0.664063 -0.114851
vt 0.611328 -0.055446
vt 0.640625 -0.045545
vt 0.662109 -0.025743
vt 0.685547 -0.045545
vt 0.714844 -0.053465
vt 0.718750 -0.104950
vt 0.662109 -0.134653
vt 0.623047 -0.152475
vt 0.023438 -0.588119
vt 0.019531 -0.552475
vt 0.007813 -0.552475
vt 0.064453 -0.552475
vt 0.076172 -0.588119
vt 0.083984 -0.526733
vt 0.099609 -0.586139
vt 0.101563 -0.528713
vt 0.169922 -0.586139
vt 0.171875 -0.528713
vt 0.193359 -0.530693
vt 0.169922 -0.499010
vt 0.185547 -0.504951
vt 0.183594 -0.473267
vt 0.599609 -0.396040
vt 0.439453 -0.396040
vt 0.599609 -0.366337
vt 0.439453 -0.366337
vt 0.603516 -0.332673
vt 0.429688 -0.330693
vt 0.517578 -0.255446
vt 0.417969 -0.269307
vt 0.433594 -0.186139
vt 0.406250 -0.247525
vt 0.390625 -0.178218
vt 0.474609 -0.164356
vt 0.492188 -0.132673
vt 0.455078 -0.132673
vt 0.500000 -0.136634
vt 0.519531 -0.138614
vt 0.523438 -0.093069
vt 0.541016 -0.075248
vt 0.523438 -0.031683
vt 0.533203 -0.023762
vt 0.472656 -0.015842
vt 0.474609 -0.003960
vt 0.416016 -0.023762
vt 0.880859 -0.095050
vt 0.902344 -0.083168
vt 0.861328 -0.047525
vt 0.839844 -0.095050
vt 0.822266 -0.083168
vt 0.804688 -0.047525
vt 0.818359 -0.013861
vt 0.849609 -0.003960
vt 0.873047 -0.003960
vt 0.904297 -0.013861
vt 0.916016 -0.047525
vt 0.958984 -0.586139
vt 0.984375 -0.582178
vt 0.939453 -0.538614
vt 0.955078 -0.683168
vt 0.890625 -0.679208
vt 0.941406 -0.774257
vt 0.884766 -0.760396
vt 0.880859 -0.849505
vt 0.818359 -0.776238
vt 0.818359 -0.829703
vt 0.296875 -0.132673
vt 0.292969 -0.172277
vt 0.351563 -0.174257
vt 0.265625 -0.136634
vt 0.289063 -0.099010
vt 0.296875 -0.043564
vt 0.320313 -0.067327
vt 0.322266 -0.003960
vt 0.347656 -0.043564
vt 0.345703 -0.003960
vt 0.373047 -0.025743
vt 0.363281 -0.003960
vt 0.078125 -0.800000
vt 0.113281 -0.801980
vt 0.095703 -0.863366
vt 0.177734 -0.831683
vt 0.177734 -0.920792
vt 0.222656 -0.853465
vt 0.226563 -0.974257
vt 0.341797 -0.134653
vt 0.382813 -0.126733
vt 0.353516 -0.102970
vt 0.396484 -0.087129
vt 0.402344 -0.065347
vt 0.402344 -0.027723
vt 0.390625 -0.687129
vt 0.380859 -0.580198
vt 0.345703 -0.572277
vt 0.462891 -0.683168
vt 0.404297 -0.770297
vt 0.462891 -0.754455
vt 0.464844 -0.843564
vt 0.535156 -0.770297
vt 0.535156 -0.825743
vt 0.406250 -0.538614
vt 0.460938 -0.540594
vt 0.464844 -0.572277
vt 0.539063 -0.538614
vt 0.535156 -0.675248
vt 0.083984 -0.803960
vt 0.126953 -0.800000
vt 0.111328 -0.861386
vt 0.601563 -0.186139
vt 0.517578 -0.182178
vt 0.617188 -0.269307
vt 0.693359 -0.346535
vt 0.691406 -0.376238
vt 0.769531 -0.346535
vt 0.765625 -0.388119
vt 0.691406 -0.403960
vt 0.748047 -0.255446
vt 0.691406 -0.289109
vt 0.882813 -0.540594
vt 0.878906 -0.576238
vt 0.812500 -0.538614
vt 0.820313 -0.683168
vt 0.025391 -0.475248
vt 0.085938 -0.471287
vt 0.025391 -0.469307
vt 0.085938 -0.479208
vt 0.019531 -0.506931
vt 0.083984 -0.504951
vt 0.017578 -0.526733
vt 0.007813 -0.536634
vt 0.017578 -0.538614
vt 0.265625 -0.598020
vt 0.281250 -0.615842
vt 0.259766 -0.598020
vt 0.251953 -0.615842
vt 0.212891 -0.596040
vt 0.156250 -0.594059
vt 0.087891 -0.598020
vt 0.169922 -0.475248
vt 0.101563 -0.499010
vt 0.099609 -0.479208
vt 0.304688 -0.003960
vt 0.273438 -0.029703
vt 0.244141 -0.041584
vt 0.246094 -0.093069
vt 0.630859 -0.251485
vt 0.644531 -0.178218
vt 0.441406 -0.091089
vt 0.421875 -0.093069
vt 0.445313 -0.134653
vt 0.429688 -0.136634
vt 0.406250 -0.077228
vt 0.427734 -0.031683
vt 0.447266 -0.039604
vt 0.046875 -0.825743
vt 0.029297 -0.924753
vt 0.083984 -0.926733
vt 0.056641 -0.966337
vt 0.158203 -0.976238
vt 0.060547 -0.994059
vt 0.238281 -0.495050
vt 0.261719 -0.465347
vt 0.246094 -0.465347
vt 0.250000 -0.497030
vt 0.234375 -0.504951
vt 0.246094 -0.506931
vt 0.208984 -0.538614
vt 0.240234 -0.552475
vt 0.230469 -0.586139
vt 0.078125 -0.966337
vt 0.000000 -0.994059
vt 0.179688 -0.976238
vt 0.035156 -0.744554
vt 0.007813 -0.744554
vt 0.007813 -0.796040
vt 0.007813 -0.710891
vt 0.039063 -0.710891
vt 0.007813 -0.683168
vt 0.039063 -0.685149
vt 0.007813 -0.615842
vt 0.037109 -0.615842
vt 0.988281 -0.138614
vt 0.988281 -0.104950
vt 0.970703 -0.136634
vt 0.992188 -0.190099
vt 0.949219 -0.091089
vt 0.945313 -0.386139
vt 0.884766 -0.425743
vt 0.943359 -0.413861
vt 0.955078 -0.524752
vt 0.890625 -0.520792
vt 0.662109 -0.007921
vt 0.726563 -0.029703
vt 0.662109 -0.000000
vt 0.595703 -0.029703
vt 0.574219 -0.077228
vt 0.783203 -0.192079
vt 0.734375 -0.194059
vt 0.757813 -0.138614
vt 0.816406 -0.136634
vt 0.830078 -0.182178
vt 0.460938 -0.946535
vt 0.458984 -0.982178
vt 0.404297 -0.990099
vt 0.396484 -0.950495
vt 0.900391 -0.950495
vt 0.955078 -0.952475
vt 0.949219 -0.994059
vt 0.888672 -0.988119
vt 0.318359 -0.097030
vt 0.287109 -0.459406
vt 0.287109 -0.600000
vt 0.322266 -0.603960
vt 0.328125 -0.459406
vt 0.341797 -0.477228
vt 0.355469 -0.516832
vt 0.355469 -0.544554
vt 0.957031 -0.425743
vt 0.984375 -0.425743
vt 0.984375 -0.364356
vt 0.984375 -0.449505
vt 0.957031 -0.449505
vt 0.984375 -0.497030
vt 0.957031 -0.497030
vt 0.275391 -0.714851
vt 0.296875 -0.738614
vt 0.507813 -0.091089
vt 0.500000 -0.037624
vt 0.750000 -0.073267
vt 0.781250 -0.053465
vt 0.777344 -0.083168
vt 0.681641 -0.693069
vt 0.664063 -0.776238
vt 0.781250 -0.091089
vt 0.822266 -0.093069
vt 0.736328 -0.104950
vt 0.734375 -0.140594
vt 0.662109 -0.829703
vt 0.667969 -0.956436
vt 0.693359 -0.833663
vt 0.687500 -0.954455
vt 0.695313 -0.780198
vt 0.324219 -0.843564
vt 0.367188 -0.841584
vt 0.375000 -0.805941
vt 0.312500 -0.811881
vt 0.316406 -0.740594
vt 0.382813 -0.740594
vt 0.371094 -0.693069
vt 0.326172 -0.685149
vt 0.177734 -0.443564
vt 0.228516 -0.461386
vt 0.228516 -0.445545
vt 0.175781 -0.461386
vt 0.085938 -0.447525
vt 0.703125 -0.154455
vt 0.662109 -0.172277
vt 0.693359 -0.990099
vt 0.957031 -0.364356
vt 0.957031 -0.334653
vt 0.988281 -0.334653
vt 0.474609 -0.170297
vt 0.841797 -0.520792
vt 0.685547 -0.691089
vt 0.386719 -0.457426
vt 0.400391 -0.497030
vt 0.267578 -0.461386
vt 0.267578 -0.598020
vt 0.544922 -0.059406
vt 0.548828 -0.089109
vt 0.257813 -0.508911
vt 0.251953 -0.552475
vt 0.199219 -0.526733
vt 0.224609 -0.497030
vt 0.410156 -0.823762
vt 0.935547 -0.829703
vt 0.908203 -0.093069
vt 0.423828 -0.518812
vt 0.558594 -0.170297
vt 0.037109 -0.796040
vt 0.662109 -0.994059
vt 0.281250 -0.000000
vt 0.326172 -0.445545
vn 0.683094 -0.562411 -0.465915
vn 0.678447 -0.592659 -0.434126
vn 0.695380 -0.714643 0.075716
vn 0.007527 -0.995199 0.097586
vn 0.015255 -0.964695 -0.262928
vn 0.030029 -0.961026 -0.274823
vn 0.017204 -0.985695 -0.167658
vn 0.016053 -0.985777 -0.167291
vn -0.008459 -0.999860 0.014446
vn -0.370923 -0.926970 0.056053
vn -0.001967 -0.893262 -0.449532
vn 0.364376 -0.930016 0.047965
vn -0.002679 -0.999821 0.018747
vn -0.036719 -0.983225 -0.178661
vn -0.021337 -0.984561 -0.173735
vn -0.032755 -0.962216 -0.270309
vn 0.000459 -0.969903 -0.243492
vn 0.011045 -0.995382 0.095350
vn -0.695360 -0.713033 0.089769
vn -0.668821 -0.592441 -0.449102
vn -0.672586 -0.548305 -0.496981
vn 0.320506 0.927797 0.190969
vn -0.024631 0.989809 0.140252
vn 0.000244 0.987408 0.158195
vn -0.326643 0.924878 0.194694
vn -0.526146 0.845348 0.092504
vn -0.808237 0.582934 0.083306
vn -0.887838 0.455466 -0.065534
vn -0.977265 0.063525 0.202282
vn -0.915239 -0.397900 -0.063347
vn -0.783030 -0.605431 0.142539
vn -0.355370 -0.927134 0.118887
vn -0.379954 -0.924755 -0.021545
vn -0.006471 -0.999751 -0.021347
vn -0.002231 -0.985716 -0.168403
vn 0.228715 -0.969248 -0.090813
vn 0.238191 -0.971150 -0.011525
vn 0.285955 -0.956888 0.050941
vn 0.259179 -0.924027 0.281070
vn 0.192908 -0.970337 0.145714
vn 0.014950 -0.707669 0.706386
vn 0.117494 -0.390983 0.912868
vn 0.061494 0.530350 -0.845545
vn 0.150523 0.701453 -0.696639
vn 0.147941 0.985263 -0.085853
vn 0.272089 0.596625 0.754987
vn 0.169274 0.422831 0.890259
vn 0.149918 -0.245448 0.957747
vn 0.012875 -0.309043 0.950961
vn -0.106579 -0.994137 0.018239
vn 0.177010 -0.983928 0.023530
vn -0.098791 -0.329833 -0.938856
vn 0.146106 -0.407664 -0.901367
vn 0.132231 -0.388620 -0.911860
vn 0.402425 -0.384326 -0.830872
vn 0.313860 -0.299528 -0.900985
vn -0.150443 0.694207 -0.703878
vn -0.149817 0.982940 -0.106692
vn -0.278994 0.613072 0.739125
vn -0.164831 0.425239 0.889945
vn -0.142003 -0.250851 0.957554
vn -0.014671 -0.308809 0.951011
vn 0.109200 -0.993901 0.015335
vn -0.176812 -0.984030 0.020549
vn 0.103996 -0.329194 -0.938518
vn -0.141125 -0.405168 -0.903284
vn -0.126774 -0.385600 -0.913915
vn -0.356226 -0.384209 -0.851755
vn -0.313613 -0.341905 -0.885860
vn 0.074580 -0.108899 0.991251
vn 0.204007 -0.418033 0.885229
vn 0.113953 -0.634116 0.764796
vn -0.478981 0.842479 0.246589
vn 0.001920 0.520472 0.853877
vn 0.475684 0.844697 0.245379
vn -0.110003 -0.633935 0.765523
vn -0.195765 -0.421552 0.885421
vn -0.066115 -0.108676 0.991876
vn 0.313760 -0.533990 -0.785117
vn -0.328087 -0.529687 -0.782170
vn -0.254821 -0.716602 -0.649267
vn -0.287766 -0.037562 -0.956964
vn -0.195388 0.502364 -0.842291
vn 0.356569 0.110886 -0.927665
vn 0.360632 0.149767 -0.920605
vn -0.081496 0.996593 0.012720
vn -0.078161 0.996628 0.024953
vn -0.208578 0.014918 0.977892
vn -0.210965 0.017749 0.977333
vn -0.091154 -0.995667 -0.018414
vn -0.005577 -0.999739 -0.022155
vn -0.013951 -0.999898 -0.002940
vn 0.180339 -0.972934 -0.144487
vn 0.013842 -0.999855 0.009913
vn 0.002509 -0.999863 -0.016358
vn 0.086933 -0.996145 -0.011722
vn 0.213493 0.020879 0.976721
vn 0.208322 0.014789 0.977949
vn 0.084066 0.996106 0.026551
vn 0.086724 0.996089 0.016887
vn -0.356876 0.135967 -0.924204
vn -0.354274 0.112863 -0.928306
vn 0.197631 0.503302 -0.841207
vn 0.285320 -0.035354 -0.957780
vn 0.013968 0.789722 0.613306
vn -0.001516 0.817321 0.576181
vn -0.000961 0.994003 -0.109349
vn -0.000962 0.994003 -0.109353
vn -0.000935 0.991355 -0.131207
vn 0.000982 0.992320 -0.123697
vn 0.001151 0.990836 -0.135067
vn 0.122750 0.992419 -0.006048
vn 0.161130 0.927643 0.336921
vn 0.338522 0.873125 0.350793
vn 0.237141 0.918723 0.315774
vn -0.017742 -0.735241 0.677573
vn -0.580968 -0.450126 0.678132
vn 0.671246 -0.728189 -0.138457
vn 0.739344 -0.669954 0.067318
vn 0.925819 -0.130624 -0.354679
vn 0.957763 0.078553 0.276623
vn 0.972724 0.146986 0.179452
vn 0.519784 0.809432 0.273210
vn 0.410770 0.907868 -0.083931
vn -0.407716 0.909232 -0.084056
vn -0.364098 -0.538964 -0.759572
vn -0.001101 -0.678157 -0.734917
vn 0.410000 -0.509542 -0.756483
vn 0.625774 -0.245930 -0.740220
vn 0.618390 0.273990 -0.736562
vn 0.330821 0.616896 -0.714140
vn -0.000402 0.700731 -0.713426
vn -0.317701 0.621255 -0.716316
vn -0.648566 0.219931 -0.728692
vn -0.655141 -0.175532 -0.734833
vn -0.965339 -0.043782 0.257300
vn -0.987234 -0.097726 -0.125775
vn -0.680767 0.600453 -0.419539
vn -0.742679 0.620703 -0.251306
vn -0.546195 0.728298 -0.413828
vn -0.702079 0.711900 0.016861
vn 0.674063 0.697286 0.243787
vn 0.870810 0.489712 -0.043273
vn 0.820922 -0.569667 -0.039580
vn 0.823344 -0.532802 0.195516
vn 0.181031 -0.981556 0.061439
vn -0.982386 -0.174150 0.067747
vn -0.980401 -0.126309 0.151193
vn -0.975796 -0.154668 0.154596
vn -0.425852 -0.419358 0.801741
vn -0.651826 -0.713027 -0.258294
vn 0.752649 -0.658073 0.021428
vn 0.780687 -0.621670 0.063668
vn 0.719435 0.694422 0.013807
vn 0.728813 0.684692 0.005264
vn -0.065369 0.529169 -0.845995
vn -0.275906 0.592207 -0.757077
vn 0.293735 0.955584 -0.024069
vn -0.138214 0.990401 0.001630
vn 0.076689 0.661975 0.745592
vn -0.012729 0.690472 0.723247
vn -0.081694 -0.342555 0.935939
vn -0.001129 -0.418198 0.908355
vn 0.042469 -0.975748 0.214740
vn 0.077176 -0.977817 0.194724
vn 0.982358 -0.174303 0.067754
vn -0.180845 -0.981590 0.061453
vn -0.254518 -0.952756 0.165761
vn -0.929527 -0.225695 0.291618
vn -0.933924 -0.242995 0.262181
vn -0.972071 0.095978 0.214164
vn -0.989435 0.051502 0.135521
vn -0.961856 0.234280 0.141227
vn -0.635087 0.657958 0.404668
vn -0.043348 0.975225 0.216926
vn 0.982275 -0.106010 -0.154591
vn 0.655712 0.618796 -0.432590
vn 0.721836 0.646272 -0.247559
vn 0.549799 0.728212 -0.409180
vn 0.703964 0.710084 0.014691
vn -0.667216 0.701754 0.249730
vn -0.869361 0.492317 -0.042843
vn -0.820261 -0.570667 -0.038879
vn -0.820948 -0.524179 0.226452
vn 0.936797 -0.033015 0.348311
vn 0.707708 0.697719 0.111075
vn 0.412036 0.790414 -0.453290
vn -0.895851 0.442438 0.041225
vn -0.842182 0.494435 0.215089
vn -0.865988 -0.441701 0.234446
vn -0.889846 -0.453384 0.051156
vn -0.855495 -0.517515 -0.017498
vn -0.854274 -0.501163 -0.138030
vn 0.270359 0.592928 -0.758513
vn -0.289362 0.956666 -0.032565
vn 0.128206 0.991742 -0.003151
vn -0.087100 0.656661 0.749139
vn 0.013541 0.689581 0.724082
vn 0.081068 -0.341112 0.936521
vn -0.004465 -0.421917 0.906624
vn -0.045214 -0.972845 0.226999
vn -0.104023 -0.976595 0.188261
vn -0.190968 0.933956 0.302088
vn -0.162244 0.928512 0.333979
vn -0.119978 0.992607 -0.018343
vn -0.851438 0.398612 -0.340824
vn -0.878026 0.396628 -0.267875
vn -0.910667 -0.248308 -0.330195
vn -0.947898 -0.212670 -0.237192
vn -0.438818 -0.810685 -0.387594
vn -0.402748 -0.912387 0.073099
vn 0.929701 -0.341129 -0.138880
vn 0.766275 -0.624938 0.149250
vn 0.877018 -0.293510 0.380383
vn 0.973557 -0.222958 -0.049758
vn 0.969767 -0.230740 -0.079447
vn 0.957899 -0.196722 -0.209118
vn 0.928606 -0.224759 -0.295253
vn 0.925258 -0.223251 -0.306685
vn 0.984256 -0.033346 -0.173574
vn -0.696155 0.716539 0.044044
vn -0.404340 0.789623 -0.461525
vn 0.895452 0.443099 0.042771
vn 0.865848 0.477704 0.148678
vn 0.894228 -0.400993 0.198901
vn 0.907157 -0.412886 0.081182
vn 0.859187 -0.511295 -0.019387
vn 0.857652 -0.492896 -0.146583
vn 0.769705 0.118567 -0.627292
vn 0.797796 0.112526 -0.592334
vn -0.440474 -0.053517 -0.896169
vn -0.536942 0.012658 -0.843524
vn -0.032840 0.002128 -0.999458
vn -0.025917 -0.000686 -0.999664
vn 0.892690 -0.001231 -0.450669
vn 0.811398 0.036298 -0.583366
vn 0.904890 0.052114 -0.422442
vn -0.468293 -0.485475 -0.738252
vn 0.902247 -0.430763 -0.019845
vn -0.811584 -0.420828 0.405259
vn 0.609389 0.008286 0.792828
vn -0.756130 0.447758 0.477263
vn 0.920775 0.387657 -0.043533
vn -0.472114 0.649864 -0.595639
vn -0.186752 -0.972245 -0.140937
vn -0.179545 -0.972856 -0.145994
vn -0.652046 -0.001093 0.758179
vn -0.765365 0.122668 0.631798
vn -0.177648 0.977015 -0.117829
vn -0.168133 0.974436 -0.149019
vn 0.536519 0.009974 -0.843829
vn 0.439130 -0.056272 -0.896660
vn 0.975285 -0.157101 0.155368
vn 0.422900 -0.425516 0.800058
vn 0.656289 -0.708976 -0.258142
vn 0.710029 -0.670833 -0.214107
vn 0.778288 0.564332 -0.275315
vn 0.691925 0.640385 0.333386
vn 0.933228 0.340828 0.113673
vn 0.997317 -0.045697 0.057196
vn -0.287522 -0.955519 0.065689
vn -0.936336 -0.254844 -0.241515
vn -0.985210 -0.105921 -0.134694
vn -0.971912 0.196564 -0.129421
vn -0.882371 0.251410 -0.397762
vn -0.401319 0.846567 0.349668
vn -0.254419 0.919730 0.298946
vn -0.971355 -0.230939 -0.056008
vn -0.880687 -0.305797 0.361772
vn -0.968285 0.061596 0.242137
vn -0.898443 0.276543 0.341064
vn -0.805597 0.304918 0.507976
vn -0.896470 0.430307 -0.105724
vn -0.962209 -0.245580 -0.117661
vn 0.619357 0.095074 0.779332
vn 0.512573 -0.197050 0.835728
vn -0.722378 -0.686159 0.085765
vn -0.926930 -0.155132 -0.341664
vn -0.950653 0.075434 0.300945
vn 0.815221 -0.239785 0.527180
vn 0.886946 -0.315044 0.337748
vn -0.073240 0.965724 0.249024
vn -0.184779 0.553254 0.812261
vn -0.054658 0.648278 0.759439
vn -0.052059 -0.267652 0.962108
vn -0.083824 -0.290322 0.953251
vn 0.129926 -0.989087 0.069466
vn 0.091427 -0.993381 0.069534
vn 0.040014 0.425102 -0.904260
vn -0.198390 0.505550 -0.839679
vn 0.143682 0.626005 -0.766468
vn 0.189938 0.595314 -0.780720
vn 0.107861 0.603087 -0.790349
vn -0.047292 0.978251 0.201960
vn 0.495493 0.838055 0.228365
vn 0.067148 0.997701 -0.009172
vn 0.060237 0.996958 0.049450
vn 0.950962 -0.016603 -0.308862
vn 0.945422 -0.031016 -0.324368
vn 0.007057 -0.995037 -0.099258
vn -0.026071 -0.991606 -0.126645
vn -0.397606 -0.901308 0.171911
vn 0.639180 0.655544 0.402132
vn 0.963863 0.228060 0.137680
vn 0.989855 0.052135 0.132171
vn 0.973246 0.095659 0.208907
vn 0.935612 -0.242396 0.256658
vn 0.931486 -0.225310 0.285603
vn 0.253266 -0.953526 0.163229
vn -0.924379 0.379431 -0.039443
vn 0.755175 0.450288 0.476395
vn -0.716386 0.006333 0.697675
vn 0.808042 -0.422557 0.410505
vn -0.898945 -0.437531 -0.021571
vn 0.503698 -0.475436 -0.721283
vn -0.900120 0.051782 -0.432553
vn 0.397894 -0.902975 0.162224
vn 0.029010 -0.991260 -0.128696
vn -0.007331 -0.995105 -0.098553
vn -0.947553 0.016510 -0.319173
vn -0.939496 -0.005007 -0.342523
vn -0.063593 0.996657 0.051283
vn -0.070128 0.997534 -0.002633
vn -0.680025 0.634321 -0.367699
vn -0.114804 0.602907 -0.789508
vn -0.179116 0.597002 -0.781989
vn -0.057679 0.957891 0.281278
vn -0.411748 0.429445 0.803767
vn -0.177817 0.182411 0.967010
vn -0.091966 -0.494272 0.864429
vn -0.087039 -0.994058 0.065376
vn -0.130609 -0.989289 0.065178
vn 0.086468 -0.292178 0.952447
vn 0.051370 -0.267374 0.962223
vn 0.055717 0.656530 0.752239
vn 0.196880 0.554011 0.808895
vn 0.085154 0.965879 0.244595
vn 0.966452 0.191585 -0.171073
vn 0.899017 0.318494 -0.300549
vn 0.915130 0.314139 -0.252694
vn 0.809689 0.398509 -0.430806
vn 0.912850 0.402537 -0.068320
vn 0.918895 0.392136 -0.043141
vn 0.867580 0.314454 0.385258
vn -0.016466 0.109149 -0.993889
vn 0.948103 -0.110661 -0.298085
vn 0.933998 -0.159219 -0.319840
vn 0.963448 -0.201508 0.176529
vn 0.962875 -0.214765 0.163550
vn 0.529488 -0.055530 -0.846498
vn 0.531750 -0.051822 -0.845314
vn -0.067002 0.186403 0.980186
vn -0.134681 -0.488001 0.862390
vn 0.168816 -0.404920 0.898633
vn 0.122199 -0.388384 0.913359
vn 0.134146 0.307803 0.941946
vn -0.098794 0.206422 0.973463
vn 0.412666 -0.910713 -0.017546
vn 0.363111 -0.928905 0.072704
vn 0.351480 -0.926861 0.131871
vn 0.384432 -0.909579 0.157731
vn -0.011457 -0.989898 0.141315
vn -0.006368 -0.999749 -0.021482
vn 0.524584 0.649522 -0.550393
vn 0.429865 0.902662 -0.020406
vn -0.435186 0.900110 -0.020348
vn -0.498962 0.864111 0.065943
vn -0.976033 -0.019714 -0.216729
vn -0.934479 0.254091 -0.249373
vn -0.190041 -0.971423 0.142205
vn -0.172858 -0.975440 0.136519
vn -0.141538 -0.399488 0.905746
vn -0.124953 -0.393667 0.910721
vn -0.113177 -0.400601 0.909236
vn -0.015638 -0.707993 0.706046
vn -0.728101 0.676206 0.112319
vn -0.688274 0.641304 -0.339130
vn -0.617897 0.656796 -0.432229
vn 0.605560 0.602434 -0.519972
vn 0.616189 0.600254 -0.509908
vn 0.760036 0.649306 -0.027331
vn 0.725068 0.688653 0.005746
vn -0.782465 0.619956 0.058334
vn -0.570302 0.555628 -0.605006
vn -0.515779 0.566642 -0.642564
vn 0.702505 0.690731 -0.171399
vn 0.717027 0.682774 -0.140327
vn -0.236486 -0.289789 0.927414
vn -0.354561 -0.231690 0.905873
vn -0.343509 -0.543112 0.766180
vn -0.549290 -0.332924 0.766447
vn -0.755183 -0.654926 0.027740
vn -0.786833 -0.612515 0.075633
vn 0.963063 0.081894 0.256521
vn 0.883646 0.307768 0.352772
vn 0.814708 0.566053 0.125834
vn 0.915765 0.391283 -0.090948
vn 0.990316 0.084365 0.110261
vn -0.067867 -0.995679 -0.063380
vn -0.185761 -0.975832 -0.115083
vn -0.208796 -0.970775 -0.118321
vn -0.244594 -0.962292 -0.119025
vn -0.322628 -0.940786 -0.104083
vn 0.185226 0.979131 0.083629
vn 0.174953 0.980851 0.085579
vn 0.187544 0.978503 0.085786
vn 0.190839 0.977826 0.086234
vn 0.188943 0.978266 0.085414
vn -0.509816 0.028137 0.859823
vn 0.631241 -0.197010 0.750148
vn 0.621131 -0.178975 0.762997
vn -0.179586 -0.037463 0.983029
vn -0.182326 -0.029733 0.982789
vn 0.103529 0.993084 -0.055372
vn 0.190760 0.975056 -0.113472
vn 0.772072 0.118830 0.624327
vn 0.659611 -0.004176 0.751595
vn 0.439431 -0.003566 0.898269
vn 0.178122 -0.981349 0.072299
vn 0.252169 -0.518604 -0.816982
vn 0.100521 -0.293410 -0.950687
vn 0.135808 -0.279484 -0.950497
vn -0.176232 -0.980897 0.082355
vn 0.346829 -0.538963 0.767612
vn 0.358008 -0.232163 0.904395
vn 0.236045 -0.292280 0.926745
vn -0.196236 -0.186774 0.962604
vn -0.241099 -0.551261 0.798738
vn -0.997432 -0.043910 0.056584
vn -0.932837 0.342094 0.113079
vn -0.689651 0.642404 0.334212
vn -0.775084 0.574437 -0.263185
vn -0.717310 -0.666478 -0.203160
vn -0.052447 -0.197824 -0.978833
vn -0.137898 -0.267994 -0.953500
vn 0.178677 -0.980762 0.078609
vn -0.184336 -0.980560 0.067248
vn -0.377001 -0.663610 0.646136
vn -0.214064 0.976749 0.011746
vn 0.015799 -0.003530 -0.999869
vn -0.882870 -0.002830 -0.469609
vn -0.826501 0.022225 -0.562496
vn -0.334117 0.189421 -0.923301
vn -0.617648 0.119690 0.777294
vn -0.911844 -0.371702 0.174292
vn -0.802921 -0.237842 0.546579
vn -0.583163 -0.687770 0.432312
vn -0.004656 -0.570521 0.821270
vn 0.588657 -0.693129 0.416000
vn -0.520195 0.808389 0.275508
vn -0.970549 0.155469 0.184022
vn 0.926141 0.270079 -0.263288
vn 0.972988 -0.009688 -0.230654
vn 0.651191 0.345212 -0.675854
vn 0.563085 -0.134458 -0.815387
vn 0.900198 -0.345122 -0.265583
vn 0.894553 -0.346991 -0.281730
vn 0.793735 -0.474394 -0.380702
vn 0.798956 -0.476512 -0.366886
vn 0.507671 0.840325 -0.190065
vn -0.765276 0.643679 -0.005443
vn -0.769100 0.637145 -0.050306
vn -0.637299 0.723923 -0.264170
vn -0.347142 0.119108 0.930218
vn -0.134696 0.292351 0.946777
vn 0.089242 0.192359 0.977258
vn 0.052658 0.170218 0.983998
vn 0.068653 0.958946 0.275154
vn 0.418563 0.418697 0.805914
vn 0.201013 0.190850 0.960817
vn 0.097890 -0.516850 0.850461
vn 0.791332 -0.578701 -0.197230
vn 0.843032 -0.537125 -0.028151
vn 0.698981 -0.705988 -0.114044
vn 0.565693 -0.567154 -0.598605
vn -0.848461 -0.529197 -0.007967
vn -0.791917 -0.576356 -0.201697
vn -0.799081 -0.471859 -0.372584
vn -0.803301 -0.473696 -0.360997
vn 0.669053 0.732128 -0.127896
vn 0.761115 0.647341 0.040677
vn 0.764515 0.637362 -0.096371
vn -0.516463 0.840627 -0.163130
vn -0.002930 0.007197 -0.999970
vn -0.001476 0.009152 -0.999957
vn -0.002019 0.002166 -0.999996
vn -0.000001 0.000346 -1.000000
vn -0.000002 0.000346 -1.000000
vn -0.002051 -0.001502 -0.999997
vn -0.002051 0.010493 -0.999943
vn 0.003754 0.004089 -0.999985
vn 0.004894 -0.925510 0.378692
vn -0.022782 -0.943428 0.330794
vn -0.886643 -0.410024 0.213879
vn 0.253150 -0.695613 -0.672337
vn 0.450905 -0.853329 -0.261753
vn -0.451652 -0.852968 -0.261642
vn -0.710734 -0.696040 -0.101906
vn -0.556514 -0.525710 -0.643367
vn -0.565275 -0.584909 -0.581674
vn -0.481450 0.020486 0.876234
vn -0.449123 -0.000394 0.893470
vn -0.104027 0.992205 -0.068615
vn -0.142170 0.621298 -0.770569
vn 0.197294 0.503793 -0.840992
vn -0.042736 0.421689 -0.905733
vn 0.980310 -0.126339 0.151757
vn 0.196038 -0.185089 0.962970
vn 0.239494 -0.555124 0.796543
vn -0.517631 0.014790 0.855476
vn 0.875727 -0.192703 0.442683
vn 0.876919 -0.206726 0.433910
vn -0.805356 0.446514 -0.389906
vn -0.894188 0.445456 -0.044685
vn 0.192461 0.933679 0.301998
vn 0.181396 0.810480 0.556972
vn -0.237286 -0.971426 -0.005182
vn -0.229702 -0.968508 -0.096075
vn -0.000099 -0.989185 0.146672
vn -0.404486 -0.900731 0.158353
vn -0.907903 -0.335923 -0.250734
vn -0.904776 -0.336868 -0.260578
vn -0.662808 -0.742240 -0.098817
vn 0.635686 -0.390052 0.666155
vn -0.202438 -0.974557 -0.096213
vn -0.207111 -0.973807 -0.093839
vn 0.200170 0.974736 0.099109
vn 0.201764 0.974486 0.098326
vn -0.962949 0.211656 -0.167125
vn -0.964663 0.201478 -0.169803
vn -0.549863 -0.135897 -0.824125
vn -0.643287 0.351570 -0.680133
vn -0.076720 -0.996512 0.032845
vn -0.408332 -0.525046 0.746720
vn -0.134242 0.113944 -0.984376
vn -0.097152 -0.043538 -0.994317
vn 0.546937 0.038328 0.836296
vn 0.538084 0.010367 0.842827
vn 0.778543 0.321605 -0.538926
vn 0.341201 0.196739 -0.919171
vn 0.780374 0.594006 -0.195380
vn 0.779844 0.625961 -0.003903
vn -0.779847 0.594548 -0.195838
vn -0.773897 0.631545 0.047259
vn -0.006307 0.001276 -0.999979
vn -0.000001 0.008233 -0.999966
vn 0.075322 -0.996722 0.029533
vn 0.412885 -0.503067 0.759243
vn -0.771703 0.113785 -0.625721
vn -0.744148 0.119030 -0.657325
vn 0.132287 0.111676 -0.984900
vn 0.096898 -0.038922 -0.994533
vn -0.536933 0.011325 0.843549
vn -0.543141 0.031088 0.839066
vn -0.263043 -0.516854 -0.814660
vn -0.104548 -0.280998 -0.953997
vn 0.051575 0.975707 0.212924
vn -0.442327 0.864469 0.238831
vn -0.003781 0.012593 -0.999914
vn -0.000623 0.008349 -0.999965
vn -0.728347 0.685093 0.012557
vn -0.715139 0.698565 0.024142
vn 0.203973 -0.967403 0.150088
vn -0.258974 -0.924079 0.281087
vn -0.326964 0.924091 0.197864
vn 0.435972 -0.805835 -0.400697
vn 0.319133 0.931666 0.173648
vn 0.716313 -0.607275 0.343674
vn 0.355647 0.117358 0.927223
vn 0.898205 0.235684 -0.371055
vn 0.494166 0.866467 0.070952
vn 0.473551 0.873088 0.116049
vn -0.711445 -0.608258 0.351948
vn -0.179262 0.808734 0.560192
vn -0.008056 0.090002 -0.995909
vn -0.517430 0.652855 -0.553214
vn 0.001625 -0.691386 0.722484
vn 0.094869 -0.481469 0.871314
vn 0.048316 -0.207287 -0.977086
vn 0.200620 0.979536 0.016157
vn 0.475376 0.019891 0.879558
vn 0.376560 -0.649636 0.660436
vn 0.170161 -0.973704 -0.151480
vn 0.186888 0.974221 -0.126359
vn 0.682481 0.634673 -0.362504
vn 0.335622 0.524465 -0.782493
vn -0.795956 0.553533 0.245060
vn 0.568339 -0.597867 -0.565283
vn 0.822242 0.541299 0.175825
vn 0.041487 0.976050 0.213553
vn 0.549007 -0.332283 0.766929
vn -0.745365 0.633299 -0.208238
vn 0.903970 -0.395750 0.161928
vn -0.471903 -0.257916 0.843082
vn 0.018644 -0.002365 -0.999823
vn 0.449104 0.653081 -0.609747
vn -0.779536 0.315152 -0.541296
vn -0.332628 0.511893 -0.792038
vn 0.745205 0.631733 -0.213504
usemtl hltex000.002
s off
f 1/1/1 2/2/1 3/3/1
f 2/2/2 1/1/2 4/4/2
f 5/5/3 4/4/3 1/1/3
f 4/4/4 5/5/4 6/6/4
f 7/7/5 6/6/5 5/5/5
f 6/6/6 7/7/6 8/8/6
f 9/9/7 8/8/7 7/7/7
f 8/8/8 9/9/8 10/10/8
f 11/11/9 10/10/9 9/9/9
f 10/10/10 11/11/10 12/12/10
f 13/13/11 12/12/11 11/11/11
f 12/12/12 13/13/12 14/14/12
f 15/15/13 14/14/13 13/13/13
f 14/14/14 15/15/14 16/16/14
f 17/17/15 16/16/15 15/15/15
f 16/16/16 17/17/16 18/18/16
f 19/19/17 18/18/17 17/17/17
f 18/18/18 19/19/18 20/20/18
f 21/21/19 20/20/19 19/19/19
f 20/20/20 21/21/20 22/22/20
f 23/23/21 22/22/21 21/21/21
f 24/24/22 25/25/22 26/26/22
f 25/25/23 24/24/23 27/27/23
f 28/28/24 27/27/24 24/24/24
f 27/27/25 28/28/25 29/29/25
f 30/30/26 29/29/26 28/28/26
f 29/29/27 30/30/27 31/31/27
f 32/32/28 31/31/28 30/30/28
f 31/31/29 32/32/29 33/33/29
f 34/34/30 33/33/30 32/32/30
f 33/33/31 34/34/31 35/35/31
f 36/36/32 35/35/32 34/34/32
f 35/35/33 36/36/33 37/37/33
f 38/38/34 37/37/34 36/36/34
f 37/37/35 38/38/35 39/39/35
f 40/40/36 39/39/36 38/38/36
f 39/39/37 40/40/37 41/41/37
f 42/42/38 41/41/38 40/40/38
f 41/41/39 42/42/39 43/43/39
f 44/44/40 43/43/40 42/42/40
f 43/43/41 44/44/41 45/45/41
f 46/46/42 45/45/42 44/44/42
f 47/47/43 48/48/43 49/49/43
f 48/48/44 47/47/44 50/50/44
f 51/51/45 50/50/45 47/47/45
f 50/50/46 51/51/46 52/52/46
f 53/53/47 52/52/47 51/51/47
f 52/52/48 53/53/48 54/54/48
f 55/55/49 54/54/49 53/53/49
f 54/54/50 55/55/50 56/56/50
f 57/57/51 56/56/51 55/55/51
f 56/56/52 57/57/52 58/58/52
f 59/59/53 58/58/53 57/57/53
f 58/58/54 59/59/54 60/60/54
f 61/61/55 60/60/55 59/59/55
f 60/60/56 61/61/56 62/62/56
f 63/50/57 64/63/57 65/48/57
f 64/63/58 63/50/58 66/51/58
f 67/52/59 66/51/59 63/50/59
f 66/51/60 67/52/60 68/53/60
f 69/54/61 68/53/61 67/52/61
f 68/53/62 69/54/62 70/55/62
f 71/56/63 70/55/63 69/54/63
f 70/55/64 71/56/64 72/57/64
f 73/58/65 72/57/65 71/56/65
f 72/57/66 73/58/66 74/59/66
f 75/60/67 74/59/67 73/58/67
f 74/59/68 75/60/68 76/61/68
f 77/62/69 76/61/69 75/60/69
f 78/64/70 79/65/70 80/66/70
f 79/65/71 78/64/71 81/67/71
f 82/68/72 81/67/72 78/64/72
f 81/67/73 82/68/73 83/69/73
f 84/70/74 83/69/74 82/68/74
f 83/69/75 84/70/75 85/71/75
f 86/64/76 85/71/76 84/70/76
f 85/71/77 86/64/77 87/72/77
f 88/66/78 87/72/78 86/64/78
f 87/72/79 88/66/79 89/73/79
f 90/65/80 89/73/80 88/66/80
f 89/73/81 90/65/81 91/74/81
f 92/75/82 93/76/82 94/77/82
f 93/76/83 92/75/83 95/78/83
f 96/79/84 95/78/84 92/75/84
f 95/78/85 96/79/85 97/80/85
f 98/81/86 97/80/86 96/79/86
f 97/80/87 98/81/87 99/82/87
f 100/83/88 99/82/88 98/81/88
f 99/82/89 100/83/89 101/84/89
f 102/85/90 101/84/90 100/83/90
f 101/84/91 102/85/91 103/86/91
f 104/87/92 103/86/92 102/85/92
f 103/86/93 104/87/93 105/88/93
f 106/85/94 107/86/94 108/87/94
f 107/86/95 106/85/95 109/84/95
f 110/83/96 109/84/96 106/85/96
f 109/84/97 110/83/97 111/82/97
f 112/81/98 111/82/98 110/83/98
f 111/82/99 112/81/99 113/80/99
f 114/79/100 113/80/100 112/81/100
f 113/80/101 114/79/101 115/78/101
f 116/75/102 115/78/102 114/79/102
f 115/78/103 116/75/103 117/76/103
f 118/77/104 117/76/104 116/75/104
f 119/89/105 120/25/105 121/27/105
f 120/25/106 119/89/106 122/90/106
f 123/91/107 122/90/107 119/89/107
f 122/90/108 123/91/108 124/92/108
f 125/93/109 124/92/109 123/91/109
f 124/92/110 125/93/110 126/94/110
f 127/95/111 126/94/111 125/93/111
f 126/94/112 127/95/112 128/96/112
f 129/97/113 128/96/113 127/95/113
f 128/96/114 129/97/114 130/98/114
f 131/99/115 130/98/115 129/97/115
f 132/100/116 133/101/116 134/102/116
f 133/101/117 132/100/117 135/103/117
f 136/104/118 135/103/118 132/100/118
f 135/103/119 136/104/119 137/105/119
f 138/106/120 137/105/120 136/104/120
f 137/105/121 138/106/121 139/107/121
f 140/108/122 139/107/122 138/106/122
f 139/107/123 140/108/123 141/109/123
f 142/110/124 141/109/124 140/108/124
f 141/109/125 142/110/125 143/111/125
f 144/112/126 145/113/126 146/114/126
f 147/115/127 144/112/127 146/114/127
f 148/116/128 147/115/128 146/114/128
f 149/117/129 148/116/129 146/114/129
f 150/118/130 149/117/130 146/114/130
f 151/119/131 150/118/131 146/114/131
f 152/120/132 151/119/132 146/114/132
f 153/121/133 152/120/133 146/114/133
f 154/122/134 153/121/134 146/114/134
f 155/113/135 154/122/135 146/114/135
f 156/123/136 157/124/136 158/125/136
f 157/124/137 156/123/137 159/126/137
f 160/127/138 159/126/138 156/123/138
f 159/126/139 160/127/139 161/128/139
f 162/129/140 161/128/140 160/127/140
f 161/128/141 162/129/141 163/130/141
f 164/131/142 163/130/142 162/129/142
f 163/130/143 164/131/143 165/132/143
f 166/5/144 165/132/144 164/131/144
f 165/132/145 166/5/145 167/1/145
f 168/133/146 169/134/146 170/135/146
f 169/134/147 168/133/147 171/136/147
f 172/137/148 171/136/148 168/133/148
f 171/136/149 172/137/149 173/138/149
f 174/139/150 173/138/150 172/137/150
f 173/138/151 174/139/151 175/140/151
f 176/141/152 175/140/152 174/139/152
f 175/140/153 176/141/153 177/142/153
f 178/143/154 177/142/154 176/141/154
f 177/142/155 178/143/155 179/144/155
f 180/63/156 181/49/156 182/48/156
f 181/49/157 180/63/157 183/145/157
f 184/146/158 183/145/158 180/63/158
f 183/145/159 184/146/159 185/147/159
f 186/148/160 185/147/160 184/146/160
f 185/147/161 186/148/161 187/149/161
f 188/150/162 187/149/162 186/148/162
f 187/149/163 188/150/163 189/151/163
f 190/59/164 189/151/164 188/150/164
f 189/151/165 190/59/165 191/61/165
f 192/133/166 193/134/166 194/136/166
f 193/134/167 192/133/167 195/135/167
f 196/152/168 195/135/168 192/133/168
f 195/135/169 196/152/169 197/153/169
f 198/154/170 197/153/170 196/152/170
f 197/153/171 198/154/171 199/155/171
f 200/141/172 199/155/172 198/154/172
f 199/155/173 200/141/173 201/156/173
f 202/143/174 201/156/174 200/141/174
f 201/156/175 202/143/175 203/157/175
f 204/158/176 205/159/176 206/160/176
f 205/159/177 204/158/177 207/161/177
f 208/162/178 207/161/178 204/158/178
f 207/161/179 208/162/179 209/163/179
f 210/164/180 209/163/180 208/162/180
f 209/163/181 210/164/181 211/165/181
f 212/166/182 211/165/182 210/164/182
f 211/165/183 212/166/183 213/19/183
f 214/21/184 213/19/184 212/166/184
f 215/159/185 216/167/185 217/160/185
f 216/167/186 215/159/186 218/168/186
f 219/169/187 218/168/187 215/159/187
f 218/168/188 219/169/188 220/170/188
f 221/171/189 220/170/189 219/169/189
f 220/170/190 221/171/190 222/15/190
f 223/165/191 222/15/191 221/171/191
f 222/15/192 223/165/192 224/17/192
f 225/19/193 224/17/193 223/165/193
f 226/172/194 227/47/194 228/49/194
f 227/47/195 226/172/195 229/173/195
f 230/174/196 229/173/196 226/172/196
f 229/173/197 230/174/197 231/148/197
f 232/149/198 231/148/198 230/174/198
f 231/148/199 232/149/199 233/150/199
f 234/151/200 233/150/200 232/149/200
f 233/150/201 234/151/201 235/59/201
f 236/61/202 235/59/202 234/151/202
f 237/95/203 238/175/203 239/176/203
f 238/175/204 237/95/204 240/177/204
f 241/93/205 240/177/205 237/95/205
f 240/177/206 241/93/206 242/178/206
f 243/179/207 242/178/207 241/93/207
f 242/178/208 243/179/208 244/180/208
f 245/181/209 244/180/209 243/179/209
f 244/180/210 245/181/210 246/37/210
f 247/35/211 246/37/211 245/181/211
f 248/33/212 249/34/212 250/32/212
f 249/34/213 248/33/213 251/35/213
f 252/182/214 251/35/214 248/33/214
f 251/35/215 252/182/215 253/181/215
f 254/179/216 253/181/216 252/182/216
f 253/181/217 254/179/217 255/180/217
f 256/178/218 255/180/218 254/179/218
f 255/180/219 256/178/219 257/183/219
f 258/184/220 257/183/220 256/178/220
f 259/185/221 260/123/221 261/125/221
f 260/123/222 259/185/222 262/186/222
f 263/187/223 262/186/223 259/185/223
f 262/186/224 263/187/224 264/188/224
f 265/9/225 264/188/225 263/187/225
f 264/188/226 265/9/226 266/131/226
f 267/7/227 266/131/227 265/9/227
f 266/131/228 267/7/228 268/5/228
f 269/189/229 270/190/229 271/191/229
f 270/190/230 269/189/230 272/192/230
f 273/193/231 272/192/231 269/189/231
f 272/192/232 273/193/232 274/194/232
f 275/195/233 274/194/233 273/193/233
f 274/194/234 275/195/234 276/80/234
f 277/196/235 276/80/235 275/195/235
f 276/80/236 277/196/236 278/197/236
f 279/198/237 280/199/237 281/200/237
f 280/199/238 279/198/238 282/201/238
f 283/202/239 282/201/239 279/198/239
f 282/201/240 283/202/240 284/52/240
f 285/203/241 284/52/241 283/202/241
f 284/52/242 285/203/242 286/50/242
f 287/204/243 286/50/243 285/203/243
f 286/50/244 287/204/244 288/48/244
f 289/86/245 290/88/245 291/87/245
f 290/88/246 289/86/246 292/205/246
f 293/206/247 292/205/247 289/86/247
f 292/205/248 293/206/248 294/207/248
f 295/194/249 294/207/249 293/206/249
f 294/207/250 295/194/250 296/192/250
f 297/193/251 296/192/251 295/194/251
f 296/192/252 297/193/252 298/189/252
f 299/137/253 300/136/253 301/138/253
f 302/139/254 299/137/254 301/138/254
f 303/140/255 302/139/255 301/138/255
f 304/208/256 303/140/256 301/138/256
f 305/209/257 304/208/257 301/138/257
f 306/210/258 305/209/258 301/138/258
f 307/211/259 306/210/259 301/138/259
f 308/136/260 307/211/260 301/138/260
f 309/183/261 310/180/261 311/41/261
f 310/180/262 309/183/262 312/178/262
f 313/184/263 312/178/263 309/183/263
f 312/178/264 313/184/264 314/177/264
f 315/212/265 314/177/265 313/184/265
f 314/177/266 315/212/266 316/175/266
f 317/213/267 316/175/267 315/212/267
f 318/35/268 319/181/268 320/182/268
f 321/33/269 318/35/269 320/182/269
f 322/31/270 321/33/270 320/182/270
f 323/29/271 322/31/271 320/182/271
f 324/89/272 323/29/272 320/182/272
f 325/179/273 324/89/273 320/182/273
f 326/181/274 325/179/274 320/182/274
f 327/102/275 328/214/275 329/215/275
f 330/216/276 327/102/276 329/215/276
f 331/217/277 330/216/277 329/215/277
f 332/218/278 331/217/278 329/215/278
f 333/219/279 332/218/279 329/215/279
f 334/220/280 333/219/280 329/215/280
f 335/214/281 334/220/281 329/215/281
f 336/173/282 337/51/282 338/47/282
f 337/51/283 336/173/283 339/53/283
f 340/148/284 339/53/284 336/173/284
f 339/53/285 340/148/285 341/55/285
f 342/150/286 341/55/286 340/148/286
f 341/55/287 342/150/287 343/57/287
f 344/59/288 343/57/288 342/150/288
f 345/221/289 346/172/289 347/49/289
f 346/172/290 345/221/290 348/174/290
f 349/222/291 348/174/291 345/221/291
f 348/174/292 349/222/292 350/223/292
f 351/224/293 350/223/293 349/222/293
f 350/223/294 351/224/294 352/225/294
f 353/226/295 352/225/295 351/224/295
f 354/227/296 355/228/296 356/229/296
f 355/228/297 354/227/297 357/230/297
f 358/231/298 357/230/298 354/227/298
f 357/230/299 358/231/299 359/232/299
f 360/233/300 359/232/300 358/231/300
f 359/232/301 360/233/301 361/234/301
f 362/235/302 361/234/302 360/233/302
f 363/141/303 364/156/303 365/143/303
f 364/156/304 363/141/304 366/155/304
f 367/154/305 366/155/305 363/141/305
f 366/155/306 367/154/306 368/153/306
f 369/152/307 368/153/307 367/154/307
f 368/153/308 369/152/308 370/135/308
f 371/133/309 370/135/309 369/152/309
f 372/203/310 373/50/310 374/204/310
f 373/50/311 372/203/311 375/52/311
f 376/202/312 375/52/312 372/203/312
f 375/52/313 376/202/313 377/201/313
f 378/198/314 377/201/314 376/202/314
f 377/201/315 378/198/315 379/199/315
f 380/200/316 379/199/316 378/198/316
f 381/233/317 382/234/317 383/235/317
f 382/234/318 381/233/318 384/232/318
f 385/231/319 384/232/319 381/233/319
f 384/232/320 385/231/320 386/230/320
f 387/227/321 386/230/321 385/231/321
f 386/230/322 387/227/322 388/228/322
f 389/229/323 388/228/323 387/227/323
f 390/222/324 391/236/324 392/237/324
f 391/236/325 390/222/325 393/223/325
f 394/147/326 393/223/326 390/222/326
f 393/223/327 394/147/327 395/225/327
f 396/149/328 395/225/328 394/147/328
f 395/225/329 396/149/329 397/238/329
f 398/151/330 397/238/330 396/149/330
f 399/150/331 400/57/331 401/59/331
f 400/57/332 399/150/332 402/55/332
f 403/148/333 402/55/333 399/150/333
f 402/55/334 403/148/334 404/53/334
f 405/146/335 404/53/335 403/148/335
f 404/53/336 405/146/336 406/51/336
f 407/63/337 406/51/337 405/146/337
f 408/178/338 409/177/338 410/184/338
f 409/177/339 408/178/339 411/93/339
f 412/179/340 411/93/340 408/178/340
f 411/93/341 412/179/341 413/91/341
f 414/182/342 413/91/342 412/179/342
f 413/91/343 414/182/343 415/89/343
f 416/29/344 415/89/344 414/182/344
f 417/239/345 418/240/345 419/241/345
f 418/240/346 417/239/346 420/242/346
f 421/243/347 420/242/347 417/239/347
f 420/242/348 421/243/348 422/244/348
f 423/245/349 422/244/349 421/243/349
f 422/244/350 423/245/350 424/246/350
f 425/247/351 424/246/351 423/245/351
f 426/248/352 427/249/352 428/250/352
f 429/251/353 426/248/353 428/250/353
f 430/44/354 429/251/354 428/250/354
f 431/46/355 430/44/355 428/250/355
f 432/252/356 431/46/356 428/250/356
f 433/249/357 432/252/357 428/250/357
f 434/253/358 435/38/358 436/254/358
f 437/255/359 434/253/359 436/254/359
f 438/256/360 437/255/360 436/254/360
f 439/257/361 438/256/361 436/254/361
f 440/36/362 439/257/362 436/254/362
f 441/38/363 440/36/363 436/254/363
f 442/258/364 443/259/364 444/260/364
f 443/259/365 442/258/365 445/69/365
f 446/261/366 445/69/366 442/258/366
f 445/69/367 446/261/367 447/67/367
f 448/262/368 447/67/368 446/261/368
f 447/67/369 448/262/369 449/65/369
f 450/183/370 451/43/370 452/263/370
f 453/264/371 450/183/371 452/263/371
f 454/265/372 453/264/372 452/263/372
f 455/266/373 454/265/373 452/263/373
f 456/267/374 455/266/374 452/263/374
f 457/43/375 456/267/375 452/263/375
f 458/21/376 459/164/376 460/268/376
f 461/23/377 458/21/377 460/268/377
f 462/269/378 461/23/378 460/268/378
f 463/270/379 462/269/379 460/268/379
f 464/271/380 463/270/380 460/268/380
f 465/164/381 464/271/381 460/268/381
f 466/130/382 467/1/382 468/272/382
f 469/273/383 466/130/383 468/272/383
f 470/274/384 469/273/384 468/272/384
f 471/275/385 470/274/385 468/272/385
f 472/3/386 471/275/386 468/272/386
f 473/1/387 472/3/387 468/272/387
f 474/276/388 475/152/388 476/133/388
f 475/152/389 474/276/389 477/154/389
f 478/139/390 477/154/390 474/276/390
f 477/154/391 478/139/391 479/141/391
f 480/140/392 479/141/392 478/139/392
f 479/141/393 480/140/393 481/142/393
f 482/182/394 483/33/394 484/31/394
f 485/29/395 482/182/395 484/31/395
f 486/30/396 485/29/396 484/31/396
f 487/32/397 486/30/397 484/31/397
f 488/33/398 487/32/398 484/31/398
f 489/277/399 490/278/399 491/279/399
f 492/280/400 489/277/400 491/279/400
f 493/281/401 492/280/401 491/279/401
f 494/282/402 493/281/402 491/279/402
f 495/283/403 494/282/403 491/279/403
f 496/282/404 497/283/404 498/279/404
f 499/281/405 496/282/405 498/279/405
f 500/280/406 499/281/406 498/279/406
f 501/277/407 500/280/407 498/279/407
f 502/278/408 501/277/408 498/279/408
f 503/284/409 504/285/409 505/286/409
f 504/285/410 503/284/410 506/287/410
f 507/288/411 506/287/411 503/284/411
f 506/287/412 507/288/412 508/289/412
f 509/290/413 508/289/413 507/288/413
f 510/194/414 511/82/414 512/206/414
f 513/207/415 510/194/415 512/206/415
f 514/205/416 513/207/416 512/206/416
f 515/86/417 514/205/417 512/206/417
f 516/82/418 515/86/418 512/206/418
f 517/201/419 518/54/419 519/291/419
f 520/199/420 517/201/420 519/291/420
f 521/292/421 520/199/421 519/291/421
f 522/56/422 521/292/422 519/291/422
f 523/54/423 522/56/423 519/291/423
f 524/154/424 525/139/424 526/276/424
f 527/152/425 524/154/425 526/276/425
f 528/133/426 527/152/426 526/276/426
f 529/137/427 528/133/427 526/276/427
f 530/139/428 529/137/428 526/276/428
f 531/211/429 532/136/429 533/138/429
f 534/210/430 531/211/430 533/138/430
f 535/209/431 534/210/431 533/138/431
f 536/208/432 535/209/432 533/138/432
f 537/140/433 536/208/433 533/138/433
f 538/56/434 539/292/434 540/58/434
f 539/292/435 538/56/435 541/291/435
f 542/54/436 541/291/436 538/56/436
f 541/291/437 542/54/437 543/201/437
f 544/52/438 543/201/438 542/54/438
f 545/194/439 546/82/439 547/80/439
f 548/195/440 545/194/440 547/80/440
f 549/196/441 548/195/441 547/80/441
f 550/197/442 549/196/442 547/80/442
f 551/78/443 550/197/443 547/80/443
f 552/105/444 553/293/444 554/101/444
f 553/293/445 552/105/445 555/294/445
f 556/107/446 555/294/446 552/105/446
f 555/294/447 556/107/447 557/109/447
f 558/109/448 559/220/448 560/294/448
f 559/220/449 558/109/449 561/219/449
f 562/111/450 561/219/450 558/109/450
f 561/219/451 562/111/451 563/218/451
f 564/71/452 565/72/452 566/295/452
f 567/259/453 564/71/453 566/295/453
f 568/296/454 567/259/454 566/295/454
f 569/297/455 568/296/455 566/295/455
f 570/14/456 571/298/456 572/12/456
f 571/298/457 570/14/457 573/299/457
f 574/16/458 573/299/458 570/14/458
f 573/299/459 574/16/459 575/18/459
f 576/169/460 577/159/460 578/161/460
f 579/171/461 576/169/461 578/161/461
f 580/165/462 579/171/462 578/161/462
f 581/163/463 580/165/463 578/161/463
f 582/300/464 583/266/464 584/301/464
f 583/266/465 582/300/465 585/265/465
f 586/302/466 585/265/466 582/300/466
f 585/265/467 586/302/467 587/303/467
f 588/225/468 589/174/468 590/223/468
f 589/174/469 588/225/469 591/149/469
f 592/238/470 591/149/470 588/225/470
f 591/149/471 592/238/471 593/151/471
f 594/18/472 595/304/472 596/299/472
f 595/304/473 594/18/473 597/305/473
f 598/20/474 597/305/474 594/18/474
f 597/305/475 598/20/475 599/22/475
f 600/6/476 601/306/476 602/307/476
f 601/306/477 600/6/477 603/308/477
f 604/8/478 603/308/478 600/6/478
f 603/308/479 604/8/479 605/10/479
f 606/131/480 607/129/480 608/127/480
f 609/188/481 606/131/481 608/127/481
f 610/186/482 609/188/482 608/127/482
f 611/123/483 610/186/483 608/127/483
f 612/309/484 613/310/484 614/311/484
f 615/312/485 612/309/485 614/311/485
f 616/313/486 615/312/486 614/311/486
f 617/314/487 616/313/487 614/311/487
f 618/311/488 619/312/488 620/313/488
f 621/314/489 618/311/489 620/313/489
f 622/315/490 621/314/490 620/313/490
f 623/316/491 622/315/491 620/313/491
f 624/317/492 625/318/492 626/319/492
f 625/318/493 624/317/493 627/320/493
f 628/321/494 627/320/494 624/317/494
f 629/73/495 630/322/495 631/72/495
f 630/322/496 629/73/496 632/323/496
f 633/74/497 632/323/497 629/73/497
f 634/307/498 635/4/498 636/6/498
f 635/4/499 634/307/499 637/2/499
f 638/324/500 637/2/500 634/307/500
f 639/82/501 640/86/501 641/84/501
f 640/86/502 639/82/502 642/206/502
f 643/194/503 642/206/503 639/82/503
f 644/221/504 645/147/504 646/222/504
f 645/147/505 644/221/505 647/145/505
f 648/49/506 647/145/506 644/221/506
f 649/137/507 650/133/507 651/136/507
f 650/133/508 649/137/508 652/276/508
f 653/139/509 652/276/509 649/137/509
f 654/286/510 655/325/510 656/284/510
f 655/325/511 654/286/511 657/326/511
f 658/327/512 657/326/512 654/286/512
f 659/91/513 660/179/513 661/93/513
f 660/179/514 659/91/514 662/89/514
f 663/176/515 664/97/515 665/95/515
f 664/97/516 663/176/516 666/328/516
f 667/180/517 668/39/517 669/41/517
f 668/39/518 667/180/518 670/37/518
f 671/36/519 672/329/519 673/257/519
f 672/329/520 671/36/520 674/34/520
f 675/330/521 676/10/521 677/12/521
f 676/10/522 675/330/522 678/308/522
f 679/100/523 680/216/523 681/217/523
f 680/216/524 679/100/524 682/102/524
f 683/282/525 684/331/525 685/281/525
f 684/331/526 683/282/526 686/332/526
f 687/331/527 688/282/527 689/281/527
f 688/282/528 687/331/528 690/332/528
f 691/333/529 692/278/529 693/334/529
f 692/278/530 691/333/530 694/277/530
f 695/262/531 696/335/531 697/336/531
f 696/335/532 695/262/532 698/261/532
f 699/235/533 700/85/533 701/83/533
f 700/85/534 699/235/534 702/233/534
f 703/234/535 704/337/535 705/232/535
f 704/337/536 703/234/536 706/338/536
f 707/339/537 708/231/537 709/340/537
f 708/231/538 707/339/538 710/233/538
f 711/78/539 712/197/539 713/76/539
f 712/197/540 711/78/540 714/80/540
f 715/341/541 716/164/541 717/162/541
f 716/164/542 715/341/542 718/271/542
f 719/130/543 720/342/543 721/128/543
f 720/342/544 719/130/544 722/273/544
f 723/313/545 724/315/545 725/316/545
f 724/315/546 723/313/546 726/314/546
f 727/85/547 728/235/547 729/83/547
f 728/235/548 727/85/548 730/233/548
f 731/189/549 732/190/549 733/192/549
f 732/190/550 731/189/550 734/191/550
f 735/337/551 736/234/551 737/232/551
f 736/234/552 735/337/552 738/338/552
f 739/231/553 740/339/553 741/340/553
f 740/339/554 739/231/554 742/233/554
f 743/199/555 744/291/555 745/201/555
f 744/291/556 743/199/556 746/292/556
f 747/225/557 748/236/557 749/223/557
f 748/236/558 747/225/558 750/226/558
f 751/309/559 752/311/559 753/310/559
f 752/311/560 751/309/560 754/312/560
f 755/143/561 756/142/561 757/144/561
f 756/142/562 755/143/562 758/141/562
f 759/251/563 760/44/563 761/42/563
f 762/43/564 763/183/564 764/41/564
f 765/29/565 766/89/565 767/27/565
f 768/38/566 769/253/566 770/40/566
f 771/26/567 772/25/567 773/90/567
f 774/9/568 775/187/568 776/11/568
f 777/343/569 778/46/569 779/252/569
f 780/212/570 781/184/570 782/177/570
f 783/71/571 784/259/571 785/69/571
f 786/24/572 787/26/572 788/344/572
f 789/170/573 790/15/573 791/13/573
f 792/176/574 793/175/574 794/345/574
f 795/346/575 796/239/575 797/241/575
f 798/261/576 799/258/576 800/260/576
f 801/70/577 802/68/577 803/64/577
f 804/265/578 805/303/578 806/264/578
f 807/56/579 808/58/579 809/292/579
f 810/80/580 811/82/580 812/194/580
f 813/82/581 814/84/581 815/86/581
f 816/54/582 817/201/582 818/52/582
f 819/86/583 820/88/583 821/205/583
f 822/194/584 823/207/584 824/192/584
f 825/222/585 826/237/585 827/224/585
f 828/237/586 829/226/586 830/224/586
f 831/21/587 832/166/587 833/164/587
f 834/22/588 835/347/588 836/305/588
f 837/132/589 838/1/589 839/130/589
f 840/156/590 841/157/590 842/143/590
f 843/139/591 844/154/591 845/141/591
f 846/208/592 847/348/592 848/209/592
f 849/319/593 850/318/593 851/349/593
f 852/103/594 853/105/594 854/101/594
f 855/194/595 856/195/595 857/193/595
f 858/204/596 859/50/596 860/48/596
f 861/197/597 862/78/597 863/76/597
f 864/226/598 865/237/598 866/236/598
f 867/348/599 868/208/599 869/209/599
v 2.623871 -0.843738 60.791275
v 1.263865 -2.896821 58.690266
v 2.713870 0.283580 58.343952
v 1.283870 -2.783271 59.440605
v 1.353868 -3.713264 59.420284
v -0.686130 -2.793260 59.420597
v -0.746132 -3.713260 59.420280
v -2.016129 -0.853728 60.791260
v -1.806134 -2.953835 61.100540
v -2.246139 -2.754535 63.140610
v -1.556139 -4.264138 61.980087
v -1.706142 -4.404541 63.150040
v -0.046143 -5.654337 62.549614
v 0.043855 -5.364688 63.569714
v 0.653857 -5.654338 62.549614
v 0.613855 -5.384679 63.539707
v 2.173858 -4.374538 63.120060
v 0.433853 -5.074988 64.439812
v 2.123856 -4.354847 64.020065
v 1.363852 -5.185101 64.759781
v 2.653857 -3.384953 64.320404
v 2.883853 -3.245631 66.290451
v 3.243862 -1.364898 64.161095
v 2.973857 -0.285872 66.991470
v 2.923865 1.204840 64.921982
v 1.653860 2.053828 67.872269
v 1.693867 3.004591 65.652596
v 1.693849 -3.146295 68.230484
v 2.883853 -3.245631 66.290451
v 2.973857 -0.285872 66.991470
v 1.823849 -4.895714 66.539879
v -1.156151 -4.795697 66.509903
v -0.886148 -5.185095 64.759773
v -2.206147 -3.145609 66.260475
v -2.146143 -3.424958 64.370377
v -2.666139 -1.374907 64.221085
v -2.246139 -2.754535 63.140610
v -2.396132 -0.624233 62.261341
v -2.016129 -0.853728 60.791260
v -1.016124 2.076128 61.202271
v -2.176131 0.093494 58.423737
v -1.256127 2.783387 58.516853
v 2.823861 -2.764519 63.060616
v 2.983868 -0.624217 62.181351
v 3.243862 -1.364898 64.161095
v 2.623871 -0.843738 60.791275
v 2.473866 -2.943844 61.100552
v 1.353868 -3.713264 59.420284
v 2.183861 -4.294160 62.020088
v 1.193862 -4.613824 61.049976
v 0.853859 -5.054146 61.989822
v 0.253861 -5.023898 61.269833
v -0.266141 -5.054144 61.989819
v -0.636138 -4.623820 61.049969
v -1.556139 -4.264138 61.980087
v -0.746132 -3.713260 59.420280
v -1.806134 -2.953835 61.100540
v -1.096151 -3.146289 68.230476
v -1.156151 -4.795697 66.509903
v 1.693849 -3.146295 68.230484
v -2.206147 -3.145609 66.260475
v -2.446143 -0.285888 67.071457
v -2.666139 -1.374907 64.221085
v -2.366135 1.204824 65.001968
v -2.396132 -0.624233 62.261341
v -1.186127 2.815461 63.142525
v -1.016124 2.076128 61.202271
v 2.173858 -4.374538 63.120060
v 2.823861 -2.764519 63.060616
v 2.123856 -4.354847 64.020065
v 2.183861 -4.294160 62.020088
v 0.653857 -5.654338 62.549614
v 0.853859 -5.054146 61.989822
v -0.046143 -5.654337 62.549614
v -0.266141 -5.054144 61.989819
v -1.556139 -4.264138 61.980087
v -2.176131 0.093506 58.413734
v -1.006127 2.563607 58.326595
v -1.256127 2.783398 58.506851
v -2.006131 0.073820 58.143711
v -0.726135 -2.876864 58.730289
v -0.676136 -2.505705 57.730721
v 1.263865 -2.886810 58.680275
v 1.293865 -2.485731 57.750740
v 2.623869 0.083813 58.143719
v -1.676144 -4.334829 63.990063
v -2.146143 -3.424958 64.370377
v -2.246139 -2.754535 63.140610
v -0.886148 -5.185095 64.759773
v 0.123853 -5.074980 64.419815
v 0.433853 -5.074988 64.439812
v 0.043855 -5.364688 63.569714
v 0.613855 -5.384679 63.539707
v 1.603876 2.076122 61.202278
v 2.623871 -0.843738 60.791275
v 2.713870 0.283580 58.343952
v 2.983868 -0.624217 62.181351
v 1.723873 2.815455 63.142532
v 2.923865 1.204840 64.921982
v 1.693867 3.004591 65.652596
v 1.693867 3.004591 65.652596
v -1.156133 2.994597 65.652588
v -1.116140 2.013841 67.852249
v -1.186127 2.815461 63.142525
v 1.723873 2.815455 63.142532
v -1.016124 2.076128 61.202271
v 1.603876 2.076122 61.202278
v -0.726135 -2.876877 58.740292
v -2.016129 -0.853728 60.791260
v -2.176131 0.093494 58.423737
v -0.686130 -2.793260 59.420597
v 1.263865 -2.896821 58.690266
v 1.283870 -2.783271 59.440605
v 1.193862 -4.613824 61.049976
v 0.283865 -4.773336 59.639919
v 1.353868 -3.713264 59.420284
v 0.253861 -4.993825 61.059841
v 0.263861 -4.933853 61.139862
v -0.636138 -4.623820 61.049969
v 1.693853 -0.586405 68.551361
v -1.096151 -3.146289 68.230476
v 1.693849 -3.146295 68.230484
v -1.096147 -0.596396 68.541351
v 1.653860 2.053828 67.872269
v -1.116140 2.013841 67.852249
v -1.156133 2.994597 65.652588
v -2.366135 1.204824 65.001968
v -2.446143 -0.285888 67.071457
v -1.116140 2.013841 67.852249
v -1.096147 -0.596396 68.541351
v -1.096151 -3.146289 68.230476
v 1.363852 -5.185101 64.759781
v -0.886148 -5.185095 64.759773
v 0.433853 -5.074988 64.439812
v 1.823849 -4.895714 66.539879
v 2.883853 -3.245631 66.290451
v -1.706142 -4.404541 63.150040
v -1.676144 -4.334829 63.990063
v -2.246139 -2.754535 63.140610
v 0.123853 -5.074980 64.419815
v 0.043855 -5.364688 63.569714
v 2.713870 0.283591 58.333950
v 2.623869 0.083813 58.143719
v 1.263865 -2.886810 58.680275
v 1.613873 2.563603 58.326595
v 1.733874 2.773382 58.516838
v 2.823861 -2.764519 63.060616
v 2.653857 -3.384953 64.320404
v 2.123856 -4.354847 64.020065
v 3.243862 -1.364898 64.161095
v 0.253861 -5.023898 61.269833
v 0.253861 -4.953849 61.129856
v 1.193862 -4.613824 61.049976
v -0.636138 -4.623820 61.049969
v -0.636138 -4.623820 61.049969
v 0.283865 -4.773336 59.639919
v 0.253861 -4.993825 61.059841
v -0.746132 -3.713260 59.420280
v 1.733874 2.773383 58.516838
v -1.016124 2.076128 61.202271
v 1.603876 2.076122 61.202278
v -1.256127 2.783387 58.516853
v 2.973857 -0.285872 66.991470
v 1.693853 -0.586405 68.551361
v 1.693849 -3.146295 68.230484
v 1.653860 2.053828 67.872269
v 1.193862 -4.613824 61.049976
v -0.636138 -4.623820 61.049969
v 0.263861 -4.933853 61.139862
v 0.253861 -4.953849 61.129856
v 1.733874 2.773382 58.516838
v -1.006127 2.563607 58.326595
v 1.613873 2.563603 58.326595
v -1.256127 2.783398 58.506851
v 2.473866 -2.943844 61.100552
v 2.823861 -2.764519 63.060616
v 2.183861 -4.294160 62.020088
v 1.603876 2.076122 61.202278
v 2.713870 0.283580 58.343952
v 1.733874 2.773383 58.516838
v 1.653860 2.053828 67.872269
v 1.693867 3.004591 65.652596
v -1.116140 2.013841 67.852249
v -1.186127 2.815461 63.142525
v -2.366135 1.204824 65.001968
v -1.156133 2.994597 65.652588
v 3.243862 -1.364898 64.161095
v 2.983868 -0.624217 62.181351
v 2.923865 1.204840 64.921982
v -0.746132 -3.713260 59.420280
v 1.353868 -3.713264 59.420284
v 0.283865 -4.773336 59.639919
vt 0.300781 -0.388119
vt 0.228516 -0.445545
vt 0.326172 -0.445545
vt 0.228516 -0.427723
vt 0.230469 -0.419802
vt 0.179688 -0.427723
vt 0.177734 -0.419802
vt 0.107422 -0.388119
vt 0.150391 -0.374257
vt 0.134766 -0.322772
vt 0.160156 -0.350495
vt 0.154297 -0.322772
vt 0.197266 -0.336634
vt 0.197266 -0.312871
vt 0.210938 -0.336634
vt 0.210938 -0.312871
vt 0.251953 -0.322772
vt 0.208984 -0.289109
vt 0.251953 -0.300990
vt 0.232422 -0.281188
vt 0.265625 -0.293069
vt 0.269531 -0.235644
vt 0.294922 -0.300990
vt 0.320313 -0.225743
vt 0.361328 -0.279208
vt 0.392578 -0.203960
vt 0.404297 -0.261386
vt 0.242188 -0.188119
vt 0.240234 -0.229703
vt 0.169922 -0.229703
vt 0.173828 -0.281188
vt 0.140625 -0.235644
vt 0.142578 -0.293069
vt 0.113281 -0.300990
vt 0.093750 -0.348515
vt 0.011719 -0.378218
vt 0.085938 -0.447525
vt 0.007813 -0.447525
vt 0.273438 -0.326733
vt 0.312500 -0.350495
vt 0.255859 -0.374257
vt 0.248047 -0.350495
vt 0.220703 -0.372277
vt 0.216797 -0.350495
vt 0.203125 -0.366337
vt 0.189453 -0.352475
vt 0.185547 -0.372277
vt 0.164063 -0.188119
vt 0.085938 -0.223762
vt 0.050781 -0.283168
vt 0.000000 -0.330693
vt 0.218750 -0.348515
vt 0.189453 -0.350495
vt 0.011719 -0.407921
vt 0.107422 -0.417822
vt 0.177734 -0.443564
vt 0.179688 -0.437624
vt 0.228516 -0.437624
vt 0.304688 -0.417822
vt 0.152344 -0.300990
vt 0.199219 -0.289109
vt 0.400391 -0.378218
vt 0.406250 -0.330693
vt 0.093750 -0.059406
vt 0.156250 -0.059406
vt 0.156250 -0.003960
vt 0.156250 -0.124752
vt 0.091797 -0.124752
vt 0.152344 -0.170297
vt 0.085938 -0.170297
vt 0.203125 -0.419802
vt 0.203125 -0.374257
vt 0.203125 -0.370297
vt 0.240234 -0.118812
vt 0.166016 -0.118812
vt 0.240234 -0.049505
vt 0.166016 -0.051485
vt 0.000000 -0.261386
vt 0.021484 -0.203960
vt 0.087891 -0.184158
vt 0.406250 -0.407921
vt 0.410156 -0.447525
vt 0.203125 -0.368317
vt 0.011719 -0.122772
vt 0.080078 -0.057426
vt 0.011719 -0.057426
vt 0.078125 -0.122772
vt 0.316406 -0.184158
vt 0.207031 -0.370297
vt 0.080078 -0.003960
vt 0.205078 -0.411881
vn 0.891002 -0.423920 -0.162505
vn 0.797487 -0.599328 0.069435
vn 0.659376 0.065992 -0.748912
vn 0.010033 0.022599 -0.999694
vn 0.000000 0.000344 -1.000000
vn -0.684450 0.044890 -0.727676
vn -0.865733 -0.156576 -0.475384
vn -0.972168 -0.126272 -0.197342
vn -0.939323 -0.295808 -0.173696
vn -0.938306 -0.307978 -0.157262
vn -0.631427 -0.756186 -0.171706
vn -0.512367 -0.813173 0.276097
vn 0.000000 -0.961973 0.273145
vn -0.020058 -0.964866 0.261977
vn 0.572158 -0.785165 0.236961
vn 0.573158 -0.732794 0.366746
vn 0.400525 -0.915310 0.042277
vn 0.144139 -0.728560 -0.669645
vn 0.814843 -0.522813 0.250394
vn 0.805635 -0.590097 -0.052323
vn 0.953940 -0.285811 -0.091157
vn 0.991497 -0.057769 0.116608
vn 0.992732 0.107741 0.053628
vn 0.879159 0.396478 0.264357
vn 0.844608 0.486461 0.223591
vn 0.839437 -0.149292 0.522549
vn 0.764984 -0.417263 0.490603
vn -0.030568 -0.695765 0.717619
vn -0.034911 -0.976663 0.211919
vn -0.842921 -0.537938 -0.010353
vn -0.817826 -0.572469 0.058646
vn -0.969385 -0.245482 0.005507
vn -0.966706 -0.249381 -0.057347
vn -0.970761 -0.146756 -0.189962
vn -0.961473 -0.159971 -0.223562
vn -0.894203 0.345191 -0.285032
vn -0.938199 0.294783 0.181345
vn -0.934772 0.313958 0.166230
vn 0.971946 -0.147820 -0.182948
vn 0.960999 -0.163479 -0.223058
vn 0.981473 -0.094638 -0.166597
vn 0.851920 -0.135350 -0.505877
vn 0.831188 -0.423683 -0.360026
vn 0.580117 -0.735699 -0.349587
vn 0.487803 -0.844936 -0.219387
vn 0.320146 -0.897106 -0.304480
vn -0.000001 -0.999119 -0.041973
vn -0.335242 -0.899590 -0.279913
vn -0.512492 -0.839088 -0.182434
vn -0.625098 -0.698605 -0.348143
vn -0.846150 -0.398773 -0.353568
vn 0.000000 -0.721878 0.692020
vn -0.785416 -0.432909 0.442392
vn -0.852256 -0.207684 0.480132
vn -0.985763 -0.116978 0.120775
vn -0.993850 0.104437 0.036806
vn -0.986755 0.139706 -0.082438
vn -0.894397 0.376490 -0.241475
vn -0.900821 0.373574 -0.221279
vn 0.926393 -0.371810 0.059603
vn 0.926872 -0.374899 -0.018966
vn 0.654041 -0.754857 -0.049212
vn 0.408746 -0.691610 -0.595486
vn -0.000013 -0.682066 -0.731291
vn 0.000008 -0.682067 -0.731290
vn -0.422009 -0.696248 -0.580644
vn 0.460621 -0.187574 0.867551
vn 0.780493 -0.351463 0.517015
vn 0.778273 0.428801 0.458716
vn 0.883368 0.423229 0.201340
vn 0.013448 0.937154 0.348656
vn -0.013332 0.918249 0.395778
vn -0.886515 0.434561 0.158894
vn -0.902535 -0.404669 -0.147223
vn -0.812271 -0.525435 0.253247
vn -0.143376 -0.734083 -0.663751
vn 0.016891 -0.964831 -0.262329
vn -0.020933 -0.945734 0.324268
vn -0.016230 -0.946465 0.322399
vn 0.937028 0.302846 0.173960
vn 0.891264 0.351647 -0.286345
vn 0.899797 0.386290 -0.202845
vn 0.887041 0.392755 -0.242698
vn 0.818780 0.573135 -0.033398
vn -0.003203 0.913302 0.407270
vn -0.003497 0.997460 -0.071144
vn 0.000002 0.997173 -0.075138
vn 0.000004 0.934458 -0.356074
vn 0.000003 0.934458 -0.356074
vn -0.887296 -0.445750 -0.118375
vn -0.776398 -0.618389 0.121663
vn -0.006870 -0.992459 0.122387
vn 0.003494 -0.988750 0.149536
vn 0.630337 -0.704022 -0.327152
vn 0.370146 -0.919126 -0.134903
vn 0.319760 -0.776941 0.542325
vn -0.314393 -0.740360 0.594158
vn -0.000005 -0.124375 0.992235
vn -0.003134 -0.121020 0.992645
vn -0.004365 0.249037 0.968484
vn -0.010668 0.255164 0.966839
vn -0.837607 0.458095 0.297596
vn -0.875570 0.435101 0.209916
vn -0.706297 0.175636 0.685781
vn -0.742550 -0.081057 0.664868
vn -0.000003 -0.945577 -0.325399
vn -0.000003 -0.987042 0.160462
vn 0.826202 -0.549520 -0.124167
vn -0.948808 -0.310175 0.059623
vn -0.397057 -0.913373 0.089978
vn -0.513554 -0.796278 0.319693
vn -0.909636 0.415365 -0.005873
vn -0.676769 -0.324391 0.660874
vn -0.623587 -0.298518 0.722514
vn 0.885942 -0.452183 -0.103142
vn 0.959668 -0.280995 -0.008883
vn 0.274488 -0.859923 -0.430337
vn -0.279799 -0.858553 -0.429650
vn -0.378131 -0.913544 -0.149848
vn -0.637323 -0.690230 -0.342639
vn 0.000002 0.967906 0.251312
vn 0.003237 0.967090 0.254414
vn 0.778020 -0.078138 0.623361
vn 0.743840 0.177035 0.644485
vn -0.001496 0.274450 0.961600
vn 0.001265 -0.232027 -0.972709
vn -0.000003 -0.671771 0.740759
vn -0.004705 -0.637327 0.770579
vn 0.943801 -0.298842 -0.141186
vn 0.924963 0.354568 0.136838
vn -0.016112 0.919209 0.393439
vn -0.822841 0.567444 -0.030664
vn 0.986545 0.145135 -0.075261
vn 0.000000 -0.202881 -0.979203
usemtl hltex000.002
s off
f 870/350/600 871/351/600 872/352/600
f 871/351/601 870/350/601 873/353/601
f 873/353/602 870/350/602 874/354/602
f 873/353/603 874/354/603 875/355/603
f 876/356/604 875/355/604 874/354/604
f 875/355/605 876/356/605 877/357/605
f 878/358/606 877/357/606 876/356/606
f 877/357/607 878/358/607 879/359/607
f 880/360/608 879/359/608 878/358/608
f 879/359/609 880/360/609 881/361/609
f 882/362/610 881/361/610 880/360/610
f 881/361/611 882/362/611 883/363/611
f 884/364/612 883/363/612 882/362/612
f 883/363/613 884/364/613 885/365/613
f 886/366/614 885/365/614 884/364/614
f 885/365/615 886/366/615 887/367/615
f 888/368/616 887/367/616 886/366/616
f 887/367/617 888/368/617 889/369/617
f 890/370/618 889/369/618 888/368/618
f 889/369/619 890/370/619 891/371/619
f 892/372/620 891/371/620 890/370/620
f 891/371/621 892/372/621 893/373/621
f 894/374/622 893/373/622 892/372/622
f 893/373/623 894/374/623 895/375/623
f 896/376/624 895/375/624 894/374/624
f 897/377/625 898/371/625 899/373/625
f 898/371/626 897/377/626 900/378/626
f 901/379/627 900/378/627 897/377/627
f 900/378/628 901/379/628 902/380/628
f 903/381/629 902/380/629 901/379/629
f 902/380/630 903/381/630 904/382/630
f 905/383/631 904/382/631 903/381/631
f 904/382/632 905/383/632 906/359/632
f 907/384/633 906/359/633 905/383/633
f 906/359/634 907/384/634 908/357/634
f 909/385/635 908/357/635 907/384/635
f 908/357/636 909/385/636 910/386/636
f 911/387/637 910/386/637 909/385/637
f 912/388/638 913/389/638 914/372/638
f 913/389/639 912/388/639 915/350/639
f 916/390/640 915/350/640 912/388/640
f 915/350/641 916/390/641 917/354/641
f 918/391/642 917/354/642 916/390/642
f 917/354/643 918/391/643 919/392/643
f 920/393/644 919/392/644 918/391/644
f 919/392/645 920/393/645 921/394/645
f 922/395/646 921/394/646 920/393/646
f 921/394/647 922/395/647 923/396/647
f 924/360/648 923/396/648 922/395/648
f 923/396/649 924/360/649 925/356/649
f 926/358/650 925/356/650 924/360/650
f 927/397/651 928/379/651 929/377/651
f 928/379/652 927/397/652 930/381/652
f 931/398/653 930/381/653 927/397/653
f 930/381/654 931/398/654 932/383/654
f 933/399/655 932/383/655 931/398/655
f 932/383/656 933/399/656 934/384/656
f 935/400/657 934/384/657 933/399/657
f 934/384/658 935/400/658 936/385/658
f 937/366/659 938/388/659 939/368/659
f 938/388/660 937/366/660 940/391/660
f 941/364/661 940/391/661 937/366/661
f 940/391/662 941/364/662 942/401/662
f 943/362/663 942/401/663 941/364/663
f 942/401/664 943/362/664 944/402/664
f 945/360/665 944/402/665 943/362/665
f 946/386/666 947/403/666 948/387/666
f 947/403/667 946/386/667 949/404/667
f 950/405/668 949/404/668 946/386/668
f 949/404/669 950/405/669 951/406/669
f 952/351/670 951/406/670 950/405/670
f 951/406/671 952/351/671 953/407/671
f 954/408/672 953/407/672 952/351/672
f 955/409/673 956/382/673 957/359/673
f 956/382/674 955/409/674 958/380/674
f 959/410/675 958/380/675 955/409/675
f 958/380/676 959/410/676 960/367/676
f 961/363/677 960/367/677 959/410/677
f 960/367/678 961/363/678 962/365/678
f 963/411/679 964/350/679 965/352/679
f 964/350/680 963/411/680 966/389/680
f 967/412/681 966/389/681 963/411/681
f 966/389/682 967/412/682 968/374/682
f 969/376/683 968/374/683 967/412/683
f 970/413/684 971/414/684 972/415/684
f 971/414/685 970/413/685 973/416/685
f 974/417/686 973/416/686 970/413/686
f 973/416/687 974/417/687 975/418/687
f 976/419/688 975/418/688 974/417/688
f 977/405/689 978/357/689 979/386/689
f 978/357/690 977/405/690 980/355/690
f 981/351/691 980/355/691 977/405/691
f 980/355/692 981/351/692 982/353/692
f 983/392/693 984/420/693 985/354/693
f 984/420/694 983/392/694 986/421/694
f 987/422/695 986/421/695 983/392/695
f 986/421/696 987/422/696 988/396/696
f 989/423/697 990/397/697 991/377/697
f 990/397/698 989/423/698 992/424/698
f 993/425/699 992/424/699 989/423/699
f 992/424/700 993/425/700 994/426/700
f 995/427/701 996/399/701 997/398/701
f 998/428/702 995/427/702 997/398/702
f 999/429/703 998/428/703 997/398/703
f 1000/397/704 999/429/704 997/398/704
f 1001/369/705 1002/380/705 1003/367/705
f 1002/380/706 1001/369/706 1004/378/706
f 1005/371/707 1004/378/707 1001/369/707
f 1006/361/708 1007/409/708 1008/359/708
f 1007/409/709 1006/361/709 1009/410/709
f 1010/363/710 1009/410/710 1006/361/710
f 1011/352/711 1012/408/711 1013/351/711
f 1012/408/712 1011/352/712 1014/430/712
f 1015/431/713 1014/430/713 1011/352/713
f 1016/388/714 1017/370/714 1018/368/714
f 1017/370/715 1016/388/715 1019/372/715
f 1020/394/716 1021/432/716 1022/392/716
f 1021/432/717 1020/394/717 1023/396/717
f 1024/396/718 1025/420/718 1026/421/718
f 1025/420/719 1024/396/719 1027/356/719
f 1028/433/720 1029/434/720 1030/435/720
f 1029/434/721 1028/433/721 1031/436/721
f 1032/373/722 1033/437/722 1034/377/722
f 1033/437/723 1032/373/723 1035/375/723
f 1036/438/724 1037/438/724 1038/438/724
f 1037/438/725 1036/438/725 1039/438/725
f 1040/433/726 1041/434/726 1042/435/726
f 1041/434/727 1040/433/727 1043/436/727
f 1044/390/728 1045/388/728 1046/391/728
f 1047/411/729 1048/352/729 1049/431/729
f 1050/439/730 1051/413/730 1052/415/730
f 1053/400/731 1054/399/731 1055/427/731
f 1056/372/732 1057/389/732 1058/374/732
f 1059/356/733 1060/354/733 1061/440/733
